<?xml version="1.0" encoding="utf-8"?>
<!-- Generator: Adobe Illustrator 24.0.0, SVG Export Plug-In . SVG Version: 6.00 Build 0)  -->
<svg version="1.1" id="Layer_1" xmlns="http://www.w3.org/2000/svg" xmlns:xlink="http://www.w3.org/1999/xlink" x="0px" y="0px"
	 viewBox="0 0 160 160" style="enable-background:new 0 0 160 160;" xml:space="preserve">
<style type="text/css">
	.st0{fill:#DAA900;}
	.st1{fill:none;stroke:#FFFFFF;stroke-width:3.97;stroke-miterlimit:10;}
	.st2{fill:none;}
	.st3{fill:#FFFFFF;}
</style>
<title>WOB_</title>
<path class="st0" d="M59.9,126.9c-3.9,0-7.1-3.2-7.1-7.1V62l-0.2-0.4c-1.5-2.2-2.4-4.8-2.3-7.5c0-6.5,4.6-11.8,10.3-11.8
	c1.3,0,2.5,0.3,3.6,0.8l1,0.4l0.6-0.8c3.8-5.4,11.2-6.7,16.6-2.9c1.1,0.8,2.1,1.8,2.9,3l0.7,0.8l1-0.4c1.2-0.5,2.5-0.8,3.8-0.8
	c2.7,0,5.2,1.2,7,3.2l0.6,0.7l0.9-0.4c0.7-0.3,1.6-0.5,2.4-0.5c4,0,7.3,3.9,7.3,8.8c0,2.3-0.8,4.6-2.3,6.3l-0.3,0.4v5.5h4.8
	c4.6,0,8.3,3.7,8.3,8.3v24.5c0,4.6-3.7,8.3-8.3,8.3h-4.8v12.3c0,3.9-3.2,7.1-7.1,7.1H59.9z M55.9,119.9c0,2.2,1.8,4,4,4h39.4
	c2.2,0,4-1.8,4-4v-3.2H55.9V119.9z M79.3,72.9h0.3c0.8,0,1.5,0.7,1.5,1.5v30c0,0.8-0.7,1.5-1.5,1.5s-1.5-0.7-1.5-1.5v-30
	c0-0.6,0.4-1.2,1-1.4L79.3,72.9z M78.3,70.4c-0.9,0.2-1.8,0.3-2.8,0.3c-3.9-0.1-7.4-1.9-9.7-5.1l-0.7-0.8l-1,0.4
	c-2.1,0.9-4.4,1-6.5,0.3l-1.8-0.6v48.7h47.4V62.9h-1.4h-0.2c-0.8,0-1.6-0.2-2.4-0.5l-0.8-0.3l-0.6,0.7c-1.8,2-4.3,3.1-7,3.2
	c-1.3,0-2.6-0.3-3.8-0.8l-1-0.4l-0.7,0.8c-1.7,2.2-4,3.9-6.6,4.7L78.3,70.4z M106.3,104.5h4.8c2.9,0,5.3-2.4,5.3-5.3V74.7
	c0-2.9-2.4-5.3-5.3-5.3h-4.8V104.5z M65.6,61c0.1,0,0.2,0,0.3,0c0.4,0.1,0.8,0.4,1.1,0.8c2,3.6,5.2,5.8,8.6,5.8s6.7-2.2,8.6-5.9
	c0.2-0.4,0.6-0.7,1.1-0.8c0.1,0,0.2,0,0.3,0c0.4,0,0.7,0.1,1,0.4c1.2,1,2.7,1.6,4.2,1.7c2.6-0.1,4.9-1.6,6-3.8
	c0.2-0.4,0.7-0.7,1.1-0.8h0.2c0.4,0,0.8,0.2,1.1,0.5c0.6,0.7,1.5,1.1,2.5,1.1c2.3,0,4.2-2.6,4.2-5.7s-1.9-5.7-4.2-5.7
	c-1,0-1.9,0.4-2.5,1.1c-0.3,0.3-0.7,0.5-1.1,0.5h-0.2c-0.5-0.1-0.9-0.3-1.1-0.8c-1.2-2.3-3.4-3.7-6-3.8c-1.6,0-3.1,0.6-4.2,1.6
	c-0.3,0.2-0.6,0.4-1,0.4c-0.1,0-0.2,0-0.3,0c-0.5-0.1-0.9-0.4-1.1-0.8c-2-3.7-5.2-5.9-8.6-5.9s-6.6,2.2-8.5,5.8
	c-0.2,0.4-0.6,0.7-1.1,0.8c-0.1,0-0.2,0-0.3,0c-0.4,0-0.7-0.1-1-0.3c-1.1-1-2.6-1.5-4.1-1.5c-4,0-7.3,3.9-7.3,8.8s3.3,8.8,7.3,8.8
	c1.5,0,2.9-0.6,4.1-1.5C64.9,61.2,65.2,61,65.6,61z"/>
<path class="st0" d="M65.4,105.8c-0.8,0-1.5-0.7-1.5-1.5v-30c-0.2-0.8,0.4-1.6,1.2-1.8c0.8-0.2,1.6,0.4,1.8,1.2c0,0.2,0,0.4,0,0.6
	v30C66.9,105.1,66.2,105.8,65.4,105.8z"/>
<path class="st0" d="M93.7,105.8c-0.8,0-1.5-0.7-1.5-1.5v-30c0-0.8,0.7-1.5,1.5-1.5s1.5,0.7,1.5,1.5l0,0v30
	C95.3,105.1,94.6,105.8,93.7,105.8z"/>
<path class="st1" d="M153.5,87.3c-2.5,38.2-34.1,68.6-73,68.8c-39.2,0.3-71.5-30-74-68.8"/>
<path id="SVGID_x5F_1_x5F_" class="st2" d="M15.6,82.4c0.3-35.8,29.5-64.5,65.3-64.2s64.5,29.5,64.2,65.3
	c-0.3,35.8-29.5,64.5-65.3,64.2S15.2,118.2,15.6,82.4z"/>
<path class="st1" d="M153.5,87.3c-2.5,38.2-34.1,68.6-73,68.8c-39.2,0.3-71.5-30-74-68.8"/>
<g>
	<path class="st3" d="M12.5,56.7l-2.4,7.2L7.5,63l2.4-7.2L12.5,56.7z"/>
	<path class="st3" d="M15.8,41.4c-0.4-0.2-0.7-0.2-1,0.2l-1.8,3c-0.2,0.4-0.2,0.7,0.2,1l7,4.2c0.4,0.2,0.7,0.2,1-0.2l1.8-3
		c0.2-0.4,0.2-0.7-0.2-1l-1.9-1.2l-1.4,2.4l-2.3-1.4l3-5l4.8,2.9c1.5,0.9,1.9,2.6,1,4.1l-2.6,4.3c-0.9,1.5-2.6,1.9-4.1,1l-8-4.8
		c-1.5-0.9-1.9-2.6-1-4.1l2.6-4.3c0.9-1.5,2.6-1.9,4.1-1l1.7,1L17,42.1L15.8,41.4z"/>
	<path class="st3" d="M33.4,37.9L27.6,36L26,37.8l4.2,3.7l-2,2.3l-11.3-10L22,28c1.2-1.3,2.9-1.4,4.2-0.2l2.7,2.4
		c1.1,0.9,1.3,2.3,0.8,3.4l6,1.9L33.4,37.9z M24.6,30.4c-0.3-0.3-0.7-0.3-1,0.1L21,33.4l2.9,2.6l2.6-2.9c0.3-0.3,0.3-0.7-0.1-1
		L24.6,30.4z"/>
	<path class="st3" d="M34.7,16.9l1.8,2.2l-5.4,4.2l1.9,2.4l4.4-3.4l1.8,2.2l-4.4,3.4l2.1,2.7l5.4-4.2l1.8,2.2l-7.8,6.1L27,23
		L34.7,16.9z"/>
	<path class="st3" d="M46.6,27.3l-2.8,1.5l-2.8-15.6l3.1-1.7l11.4,11.1l-2.9,1.5l-2.5-2.5l-4.3,2.3L46.6,27.3z M45.3,20.9l2.9-1.5
		l-4-4.2L45.3,20.9z"/>
	<path class="st3" d="M56.4,9.6l4,11.6l-2.9,1l-4-11.6l-3.7,1.3l-0.9-2.7l10.3-3.5l0.9,2.7L56.4,9.6z"/>
	<path class="st3" d="M67,4L76.8,3l0.3,2.8l-6.8,0.7l0.3,3.2l5.5-0.6l0.3,2.8l-5.5,0.6l0.7,6.1l-3,0.3L67,4z"/>
	<path class="st3" d="M87.6,3.3c1.8,0.1,2.9,1.4,2.8,3.2l-0.6,9.3c-0.1,1.8-1.4,2.9-3.2,2.8l-5.1-0.3c-1.8-0.1-2.9-1.4-2.8-3.2
		l0.6-9.3C79.5,4,80.8,2.9,82.6,3L87.6,3.3z M87.4,6.9c0-0.5-0.2-0.7-0.7-0.8l-3.5-0.2c-0.5,0-0.7,0.2-0.8,0.7l-0.5,8.1
		c0,0.5,0.2,0.7,0.7,0.8l3.5,0.2c0.5,0,0.7-0.2,0.8-0.7L87.4,6.9z"/>
	<path class="st3" d="M98.6,20.9l-1-6l-2.4-0.6l-1.4,5.4L91,18.9l3.7-14.7l7.5,1.9c1.7,0.4,2.6,1.9,2.2,3.6l-0.9,3.4
		c-0.4,1.4-1.4,2.2-2.7,2.3l1,6.2L98.6,20.9z M101.3,9.6c0.1-0.4-0.1-0.8-0.5-0.9l-3.8-1L96,11.5l3.8,1c0.4,0.1,0.8-0.1,0.9-0.5
		L101.3,9.6z"/>
	<path class="st3" d="M120.7,14.1c1.5,0.9,2,2.5,1.2,4l-1,1.9c-0.4,0.8-1.1,1.3-2.3,1.4c0.7,0.9,0.6,1.9,0.2,2.7l-1.2,2.2
		c-0.8,1.5-2.5,2-4,1.2l-6.8-3.8l7.3-13.2L120.7,14.1z M114.2,24.6c0.4,0.2,0.7,0.1,1-0.3l1.1-1.9c0.3-0.6,0-0.8-0.5-1.1l-3.3-1.8
		l-1.7,3.1L114.2,24.6z M117.1,19.1c0.5,0.3,0.7,0.2,1-0.3l0.9-1.6c0.2-0.4,0.1-0.7-0.3-1l-3.4-1.9l-1.6,2.8L117.1,19.1z"/>
	<path class="st3" d="M134.3,24.1l-1.8,2.2l-5.3-4.3l-2,2.4l4.3,3.5l-1.8,2.2l-4.3-3.5l-2.2,2.7l5.3,4.3l-1.8,2.2l-7.7-6.2l9.5-11.8
		L134.3,24.1z"/>
	<path class="st3" d="M143.5,34.2l-2.1,1.9l-4.5-5.2l-2.3,2.1l3.7,4.2L136,39l-3.7-4.2l-2.6,2.3l4.5,5.2l-2.1,1.9l-6.5-7.4l11.4-10
		L143.5,34.2z"/>
	<path class="st3" d="M136.9,51.8l3.5-5l-1.3-2.1l-4.8,2.9l-1.6-2.6l12.9-7.8l4,6.6c0.9,1.5,0.5,3.2-1,4.1l-3,1.8
		c-1.2,0.7-2.6,0.6-3.5-0.3l-3.6,5.1L136.9,51.8z M146.6,45.6c0.4-0.2,0.5-0.6,0.2-1l-2-3.4l-3.3,2l2,3.4c0.2,0.4,0.6,0.5,1,0.2
		L146.6,45.6z"/>
	<path class="st3" d="M149.9,63.9l-2.4-7.2l2.6-0.9l2.4,7.2L149.9,63.9z"/>
</g>
</svg>
