<?xml version="1.0" encoding="utf-8"?>
<!-- Generator: Adobe Illustrator 24.0.0, SVG Export Plug-In . SVG Version: 6.00 Build 0)  -->
<svg version="1.1" id="Layer_1" xmlns="http://www.w3.org/2000/svg" xmlns:xlink="http://www.w3.org/1999/xlink" x="0px" y="0px"
	 viewBox="0 0 160 160" style="enable-background:new 0 0 160 160;" xml:space="preserve">
<style type="text/css">
	.st0{fill:none;}
	.st1{fill:#DAA900;}
	.st2{fill:none;stroke:#FFFFFF;stroke-width:3.97;stroke-miterlimit:10;}
	.st3{fill:#FFFFFF;}
</style>
<title>WOB_</title>
<path id="SVGID_x5F_1_x5F_" class="st0" d="M15.6,82.7c0.1-35.8,29.2-64.7,65-64.5c35.8,0.1,64.7,29.2,64.5,65s-29.2,64.7-65,64.5
	S15.4,118.5,15.6,82.7z"/>
<path class="st1" d="M76,83.9L76,83.9L64.2,71.5c-0.6-0.5-1.4-0.5-2,0.1c-0.5,0.5-0.5,1.3,0,1.8l3.6,3.8c-5,2.1-10.7,0.9-14.5-2.9
	c-5.7-5.7-11-20.3-6.2-25c2.1-2.1,6.3-2.4,11.7-1c0.7,0.2,1.5-0.2,1.7-1c0.2-0.7-0.2-1.5-1-1.7l0,0c-6.4-1.8-11.5-1.2-14.4,1.7
	c-6.6,6.6,0.2,22.9,6.2,29c4.9,4.9,12.3,6.1,18.5,3l5.2,5.5l-33,31.5c-2.7,2.6-2.8,6.8-0.2,9.5c1.3,1.3,3,2.1,4.8,2.1h0.1
	c1.8,0,3.5-0.8,4.8-2.1l28.1-29.5c0.5-0.6,0.4-1.5-0.2-2c-0.5-0.4-1.3-0.4-1.8,0l-28.1,29.5c-0.7,0.8-1.7,1.2-2.8,1.2
	c-2.2,0-3.9-1.7-4-3.9c0-1.1,0.4-2.1,1.2-2.9l33-31.5l34.1,35.9c0.3,0.3,0.6,0.4,1,0.4s0.7-0.1,1-0.4c0.6-0.5,0.6-1.4,0-2l0,0
	L76,83.9z"/>
<path class="st1" d="M88.5,84.8l10.9-11.4c0.6-0.5,0.6-1.4,0-2l0,0c-0.5-0.6-1.4-0.6-2,0l0,0L86.5,82.9l-3.7-3.5l11.5-10.9
	c0.6-0.5,0.7-1.4,0.2-2s-1.4-0.7-2-0.2c-0.1,0-0.1,0.1-0.1,0.1l-2.2,2.1c-0.8-3.3,0.3-6.7,2.7-9l15.8-15.1c0.1-0.1,0.3-0.1,0.5,0
	c0.1,0.1,0.1,0.3,0,0.5L96.3,58.8c-1.2,1.3-1.1,3.3,0.2,4.5c1.2,1.1,3,1.1,4.2,0l13.8-12.8c0.1-0.1,0.3-0.1,0.5,0l0,0l0.3,0.3
	c0.1,0.1,0.1,0.3,0,0.5L102.6,65c-1.2,1.2-1.2,3.2,0.1,4.4c1.2,1.2,3.1,1.2,4.4,0l13.8-12.8c0.2-0.1,0.4-0.1,0.5,0.1
	c0.1,0.1,0.1,0.3,0,0.4l-15,15.8c-1,1.1-2.3,1.9-3.8,2.4c-0.7,0.2-1.1,1-0.9,1.7l0,0c0.2,0.6,0.7,0.9,1.3,0.9c0.2,0,0.3,0,0.5-0.1
	c1.8-0.6,3.5-1.7,4.9-3.1l15-15.8c1.2-1.3,1.1-3.2-0.2-4.4c-1.2-1.1-3-1.1-4.2,0l-13.8,12.8c-0.1,0.1-0.4,0.1-0.5,0s-0.1-0.4,0-0.5
	l12.7-13.7c1.1-1.2,1.1-3.1-0.1-4.3l-0.3-0.3c-1.2-1.2-3.1-1.2-4.3-0.1L98.9,61.2c-0.2,0.1-0.4,0.1-0.5-0.1c-0.1-0.1-0.1-0.3,0-0.5
	l12.8-13.8c1.1-1.3,1-3.3-0.3-4.4c-1.2-1-3-1-4.2,0L91,57.5c-3.5,3.4-4.7,8.5-3,13.1l-7.1,6.8L75.2,72c3.1-6.2,1.9-13.6-3-18.5
	c-1-1-2.2-2-3.4-2.8c-0.6-0.5-1.5-0.3-2,0.3s-0.3,1.5,0.3,2c1.1,0.7,2.1,1.5,3,2.4c3.8,3.8,4.9,9.5,2.9,14.5l-3.8-3.6
	c-0.5-0.6-1.4-0.6-2-0.1s-0.6,1.4-0.1,2c0,0.1,0.1,0.1,0.1,0.1l52.3,49.9c1.6,1.5,1.6,4,0.1,5.5c-0.7,0.8-1.8,1.2-2.8,1.2l0,0
	c-1.1,0-2.1-0.5-2.8-1.2l-4.7-5c-0.6-0.5-1.4-0.5-2,0.1c-0.5,0.5-0.5,1.3,0,1.8l4.7,5c1.2,1.3,3,2.1,4.8,2.1h0.1
	c3.7,0,6.7-3,6.7-6.7c0-1.8-0.7-3.6-2.1-4.8L88.5,84.8z"/>
<path class="st1" d="M67.7,53.2c-0.2,0-0.5-0.1-0.7-0.2c-6.7-4-10.6-4.8-10.6-4.8c-0.7-0.2-1.2-1-1-1.7s0.8-1.1,1.5-1
	c0.2,0,4.3,0.9,11.5,5.1c0.7,0.4,0.9,1.2,0.5,1.9C68.7,52.9,68.2,53.2,67.7,53.2L67.7,53.2z"/>
<path class="st2" d="M153.5,87.3c-2.5,38.2-34.1,68.6-73,68.8c-39.2,0.3-71.5-30-74-68.8"/>
<path class="st2" d="M153.5,87.3c-2.5,38.2-34.1,68.6-73,68.8c-39.2,0.3-71.5-30-74-68.8"/>
<g>
	<path class="st3" d="M12.3,57.3L10,64.5l-2.6-0.8l2.3-7.2L12.3,57.3z"/>
	<path class="st3" d="M15.5,42c-0.4-0.2-0.7-0.1-1,0.3l-1.8,3c-0.2,0.4-0.1,0.7,0.3,1l7,4.1c0.4,0.2,0.7,0.1,1-0.3l1.8-3
		c0.2-0.4,0.1-0.7-0.3-1L20.5,45l-1.4,2.4L16.8,46l2.9-5l4.8,2.8c1.5,0.9,1.9,2.6,1.1,4.1L23,52.2c-0.9,1.5-2.6,1.9-4.1,1.1l-8-4.7
		c-1.5-0.9-1.9-2.6-1.1-4.1l2.5-4.3c0.9-1.5,2.6-1.9,4.1-1.1l1.7,1l-1.5,2.6L15.5,42z"/>
	<path class="st3" d="M33,38.3l-5.8-1.9l-1.6,1.8l4.2,3.7l-2,2.3l-11.4-10l5.1-5.8c1.2-1.3,2.9-1.4,4.2-0.3l2.7,2.3
		c1.1,0.9,1.4,2.2,0.8,3.4l6,1.9L33,38.3z M24.2,30.8c-0.3-0.3-0.7-0.3-1,0.1l-2.6,3l2.9,2.5l2.6-3c0.3-0.3,0.3-0.7-0.1-1L24.2,30.8
		z"/>
	<path class="st3" d="M34.2,17.3l1.8,2.2l-5.4,4.3l1.9,2.4l4.3-3.5l1.8,2.2l-4.3,3.5l2.2,2.7l5.4-4.3l1.8,2.2l-7.7,6.2l-9.4-11.8
		L34.2,17.3z"/>
	<path class="st3" d="M46.5,27.4l-2.8,1.5l-2.8-15.6l3.1-1.7l11.4,11.1l-2.9,1.5l-2.5-2.5l-4.3,2.3L46.5,27.4z M45.2,21l2.9-1.5
		l-4-4.1L45.2,21z"/>
	<path class="st3" d="M56.2,9.6l4,11.6l-2.9,1l-4-11.6l-3.7,1.3l-0.9-2.7L59,5.7l0.9,2.7L56.2,9.6z"/>
	<path class="st3" d="M66.8,4L76.6,3l0.3,2.8l-6.8,0.7l0.4,3.2L76,9.2l0.3,2.8l-5.5,0.6l0.7,6.1l-3,0.3L66.8,4z"/>
	<path class="st3" d="M87.5,3.3c1.8,0.1,2.9,1.4,2.8,3.2l-0.6,9.3c-0.1,1.8-1.4,2.9-3.2,2.8l-5.1-0.3c-1.8-0.1-2.9-1.4-2.8-3.2
		l0.6-9.3C79.4,4,80.7,2.9,82.4,3L87.5,3.3z M87.2,6.9c0-0.5-0.2-0.7-0.7-0.8L83,5.9c-0.5,0-0.7,0.2-0.8,0.7l-0.5,8.1
		c0,0.5,0.2,0.7,0.7,0.8l3.5,0.2c0.5,0,0.7-0.2,0.8-0.7L87.2,6.9z"/>
	<path class="st3" d="M98.5,20.8l-1-6l-2.4-0.6l-1.4,5.4l-2.9-0.7l3.7-14.7l7.5,1.9c1.7,0.4,2.6,1.9,2.2,3.6l-0.9,3.4
		c-0.3,1.4-1.4,2.2-2.7,2.3l1,6.2L98.5,20.8z M101.1,9.6c0.1-0.4-0.1-0.8-0.5-0.9l-3.8-1l-0.9,3.7l3.8,1c0.4,0.1,0.8-0.1,0.9-0.5
		L101.1,9.6z"/>
	<path class="st3" d="M113.7,10.4l8.7,4.7l-1.3,2.5l-6.1-3.2l-1.5,2.9l4.9,2.6l-1.3,2.5l-4.9-2.6l-2.9,5.4l-2.7-1.4L113.7,10.4z"/>
	<path class="st3" d="M131.2,21.4c1.4,1.1,1.6,2.8,0.5,4.2L126,33c-1.1,1.4-2.8,1.6-4.2,0.5l-4-3.1c-1.4-1.1-1.6-2.8-0.5-4.2
		l5.7-7.4c1.1-1.4,2.8-1.6,4.2-0.5L131.2,21.4z M129,24.2c0.3-0.4,0.2-0.7-0.1-1L126,21c-0.4-0.3-0.7-0.2-1,0.1l-5,6.4
		c-0.3,0.4-0.2,0.7,0.1,1l2.8,2.2c0.4,0.3,0.7,0.2,1-0.1L129,24.2z"/>
	<path class="st3" d="M141.6,31.9c1.2,1.3,1.1,3-0.3,4.2l-7,6.2c-1.3,1.2-3,1.1-4.2-0.3l-3.4-3.8c-1.2-1.3-1.1-3,0.3-4.2l7-6.2
		c1.3-1.2,3-1.1,4.2,0.3L141.6,31.9z M138.9,34.3c0.3-0.3,0.4-0.7,0.1-1l-2.3-2.7c-0.3-0.3-0.7-0.4-1-0.1l-6.1,5.4
		c-0.3,0.3-0.4,0.7-0.1,1l2.3,2.7c0.3,0.3,0.7,0.4,1,0.1L138.9,34.3z"/>
	<path class="st3" d="M150,44.4c0.9,1.5,0.5,3.2-1,4.1l-7.9,4.7c-1.5,0.9-3.2,0.5-4.1-1l-4-6.8l13-7.7L150,44.4z M139.1,50
		c0.2,0.4,0.6,0.5,1,0.2l6.9-4.1c0.4-0.2,0.5-0.6,0.2-1l-2.1-3.5l-8.1,4.8L139.1,50z"/>
	<path class="st3" d="M150,64.4l-2.3-7.2l2.6-0.8l2.3,7.2L150,64.4z"/>
</g>
</svg>
