<?xml version="1.0" encoding="utf-8"?>
<!-- Generator: Adobe Illustrator 24.0.0, SVG Export Plug-In . SVG Version: 6.00 Build 0)  -->
<svg version="1.1" id="Layer_1" xmlns="http://www.w3.org/2000/svg" xmlns:xlink="http://www.w3.org/1999/xlink" x="0px" y="0px"
	 viewBox="0 0 160 160" style="enable-background:new 0 0 160 160;" xml:space="preserve">
<style type="text/css">
	.st0{fill:#DAA900;}
	.st1{fill:none;stroke:#FFFFFF;stroke-width:3.97;stroke-miterlimit:10;}
	.st2{fill:none;}
	.st3{fill:#FFFFFF;}
</style>
<title>WOB_</title>
<path class="st0" d="M107.5,50.3c-2.9-5.1-9.5-6.9-14.6-4c-2.8,1.6-4.7,4.3-5.2,7.5H72.1l-2.7-12.2c-0.1-0.6-0.6-0.9-1.2-0.9H54
	c-0.7-0.1-1.3,0.4-1.3,1.1s0.4,1.3,1.1,1.3c0.1,0,0.1,0,0.2,0h13.2l2.4,10.7h-6.5c-0.4,0-0.8,0.2-1,0.6c-0.2,0.4-0.2,0.8,0,1.2
	c0.1,0.1,7.1,12.7,2.7,26.3c-4.8,14.7,2.7,20.5,7.5,22.7c2.2,1,4.6,1.6,7,1.7v20h-8c-0.7,0-1.2,0.5-1.2,1.2s0.5,1.2,1.2,1.2l0,0
	h18.2c0.7,0,1.2-0.5,1.2-1.2s-0.5-1.2-1.2-1.2h-7.9v-20c2.4-0.1,4.8-0.7,7-1.7c4.8-2.2,12.3-8,7.5-22.7c-1.6-5.2-1.9-10.7-0.8-16
	c5.7,1.5,11.6-1.9,13.1-7.6C109.3,55.7,108.9,52.8,107.5,50.3z M105.4,51.5c0.5,0.8,0.8,1.7,1,2.7h-6.2l3-5.2
	C104.1,49.7,104.9,50.5,105.4,51.5L105.4,51.5z M100.4,47.6c0.2,0.1,0.4,0.1,0.6,0.2l-3,5.1l-2.9-5C96.8,47.3,98.7,47.2,100.4,47.6
	L100.4,47.6z M93.1,49.1l2.7,4.7h-5.7C90.5,51.9,91.6,50.3,93.1,49.1z M65.1,56.2h5L74,73.6h-5.3C68.8,67.7,67.6,61.7,65.1,56.2
	L65.1,56.2z M87.7,102.4c-2.3,1-4.7,1.6-7.2,1.6l0,0c-2.5,0-4.9-0.5-7.2-1.5c-7.3-3.3-9.4-9.9-6.2-19.7c0.7-2.2,1.1-4.4,1.4-6.6h24
	c0.2,2.2,0.7,4.5,1.4,6.6C97.1,92.5,95,99.2,87.7,102.4L87.7,102.4z M92.3,73.6H76.5l-3.9-17.4h23.3C93.4,61.7,92.2,67.7,92.3,73.6
	L92.3,73.6z M95.9,63.6c0.5-2.1,1.2-4.1,2-6l3.3,5.8C99.5,64.1,97.6,64.2,95.9,63.6L95.9,63.6z M103.3,62.2l-3.2-5.6h6.3
	C106.2,58.8,105.1,60.8,103.3,62.2L103.3,62.2z"/>
<path class="st1" d="M153.5,87.3c-2.5,38.2-34.1,68.6-73,68.8c-39.2,0.3-71.5-30-74-68.8"/>
<path id="SVGID_x5F_1_x5F_" class="st2" d="M15.6,82.5C15.8,46.7,45,17.9,80.8,18.2c35.8,0.3,64.5,29.5,64.3,65.2
	c-0.3,35.8-29.5,64.5-65.2,64.3S15.3,118.2,15.6,82.5z"/>
<path class="st1" d="M153.5,87.3c-2.5,38.2-34.1,68.6-73,68.8c-39.2,0.3-71.5-30-74-68.8"/>
<g>
	<path class="st3" d="M9.2,67.7L8,75.1l-2.7-0.4l1.2-7.5L9.2,67.7z"/>
	<path class="st3" d="M10.1,52c-0.4-0.2-0.8,0-0.9,0.4l-1.3,3.2c-0.2,0.4,0,0.8,0.4,0.9l7.6,3c0.4,0.2,0.8,0,0.9-0.4L18,56
		c0.2-0.4,0-0.8-0.4-0.9l-2.1-0.8l-1,2.6l-2.5-1l2.2-5.4l5.2,2.1c1.6,0.7,2.3,2.2,1.6,3.9L19.1,61c-0.7,1.6-2.2,2.3-3.9,1.6
		l-8.6-3.5c-1.6-0.7-2.3-2.2-1.6-3.9l1.9-4.6C7.4,49,9,48.3,10.7,49l1.8,0.7l-1.1,2.8L10.1,52z"/>
	<path class="st3" d="M26.9,45.8l-6-1l-1.3,2.1l4.7,3l-1.6,2.5L9.9,44.3l4.1-6.5c0.9-1.5,2.6-1.9,4.1-0.9l3,1.9
		c1.2,0.8,1.7,2,1.3,3.3l6.2,1L26.9,45.8z M17,39.8c-0.4-0.2-0.7-0.2-1,0.2l-2.1,3.3l3.2,2.1l2.1-3.3c0.2-0.4,0.2-0.7-0.2-1L17,39.8
		z"/>
	<path class="st3" d="M24.9,24.8l2.1,1.9l-4.7,5l2.3,2.1l3.8-4.1l2.1,1.9l-3.8,4.1l2.5,2.3l4.7-5l2.1,1.9l-6.7,7.3L18.2,32.1
		L24.9,24.8z"/>
	<path class="st3" d="M38.6,33l-2.5,1.9l-5.1-15l2.8-2.1L46.7,27l-2.6,1.9l-2.8-2.1l-3.9,2.9L38.6,33z M36.3,26.9l2.6-1.9l-4.6-3.5
		L36.3,26.9z"/>
	<path class="st3" d="M45.5,14l5.7,10.9l-2.7,1.4l-5.7-10.9l-3.5,1.8L38,14.7l9.7-5.1l1.3,2.5L45.5,14z"/>
	<path class="st3" d="M55.2,6.9l9.6-2.5l0.7,2.8l-6.6,1.8l0.8,3.1l5.4-1.4l0.7,2.8l-5.4,1.4l1.6,6L59,21.5L55.2,6.9z"/>
	<path class="st3" d="M75.5,3.1c1.8-0.2,3.1,1,3.2,2.7l0.8,9.3c0.2,1.8-1,3.1-2.7,3.2l-5,0.4c-1.8,0.2-3.1-1-3.2-2.7l-0.8-9.3
		c-0.2-1.8,1-3.1,2.7-3.2L75.5,3.1z M75.8,6.6C75.7,6.2,75.5,6,75,6l-3.5,0.3c-0.5,0-0.7,0.3-0.6,0.8l0.7,8.1c0,0.5,0.3,0.7,0.8,0.6
		l3.5-0.3c0.5,0,0.7-0.3,0.6-0.8L75.8,6.6z"/>
	<path class="st3" d="M89,18.8l-1.9-5.8l-2.4-0.2l-0.5,5.6l-3-0.3L82.6,3l7.7,0.7c1.8,0.2,2.9,1.5,2.7,3.3l-0.3,3.5
		c-0.1,1.4-1,2.4-2.3,2.6l2,5.9L89,18.8z M89.9,7.2c0-0.5-0.2-0.7-0.6-0.8l-3.9-0.4L85,9.9l3.9,0.4c0.5,0,0.7-0.2,0.8-0.6L89.9,7.2z
		"/>
	<path class="st3" d="M110,8.9c1.7,0.6,2.4,2.2,1.8,3.8l-3.2,8.6c-0.6,1.7-2.2,2.4-3.8,1.8l-7.4-2.7l5.2-14.2L110,8.9z M105.1,20.1
		c0.4,0.2,0.8,0,0.9-0.4l2.7-7.5c0.2-0.4,0-0.8-0.4-0.9l-3.8-1.4l-3.2,8.8L105.1,20.1z"/>
	<path class="st3" d="M115.6,28.8l0.8-6.1l-2.1-1.3l-2.9,4.8l-2.6-1.6l7.8-13l6.6,4c1.5,0.9,1.9,2.6,1,4.1l-1.8,3
		c-0.7,1.2-2,1.7-3.2,1.4l-0.8,6.2L115.6,28.8z M121.3,18.7c0.2-0.4,0.2-0.7-0.2-1l-3.4-2l-2,3.3l3.4,2c0.4,0.2,0.7,0.2,1-0.2
		L121.3,18.7z"/>
	<path class="st3" d="M128.5,19.5l2.4,1.9l-9.4,11.8l-2.4-1.9L128.5,19.5z"/>
	<path class="st3" d="M142.1,32.3l-11,10.4l-2.2-2.4l3.7-11.1l-7.5,7.1l-1.9-2.1l11-10.4l2.2,2.4l-3.7,11.1l7.5-7.1L142.1,32.3z"/>
	<path class="st3" d="M136.9,44.5l-3.3,2.1l-1.6-2.5l12.8-8l1.6,2.5l-6,3.8l8.8,0.7l1.9,3l-7.5-0.8l-5.2,9l-1.8-2.9l3.7-6.4
		L136.9,44.5z"/>
	<path class="st3" d="M151.7,56.5c0.4-0.2,0.6-0.5,0.4-0.9l-1.1-2.8c-0.2-0.4-0.5-0.6-0.9-0.4l-1.3,0.5c-0.4,0.2-0.5,0.5-0.4,0.9
		l0.7,3.9c0.3,1.7-0.1,3.3-1.7,3.9l-2.5,1c-1.6,0.7-3.2,0-3.9-1.7l-1.8-4.4c-0.7-1.6,0-3.2,1.7-3.9l1.8-0.7l1.1,2.7l-1.2,0.5
		c-0.4,0.2-0.6,0.5-0.4,0.9l1.2,3c0.2,0.4,0.5,0.6,0.9,0.4l1.5-0.6c0.4-0.2,0.5-0.5,0.4-0.9l-0.7-3.9c-0.3-1.7,0.1-3.3,1.7-3.9
		l2.4-1c1.6-0.7,3.2,0,3.9,1.7l1.7,4.1c0.7,1.6,0,3.2-1.7,3.9l-1.6,0.7l-1.1-2.7L151.7,56.5z"/>
	<path class="st3" d="M152,75.1l-1.2-7.5l2.7-0.4l1.2,7.5L152,75.1z"/>
</g>
</svg>
