<?xml version="1.0" encoding="utf-8"?>
<!-- Generator: Adobe Illustrator 24.0.0, SVG Export Plug-In . SVG Version: 6.00 Build 0)  -->
<svg version="1.1" id="Layer_1" xmlns="http://www.w3.org/2000/svg" xmlns:xlink="http://www.w3.org/1999/xlink" x="0px" y="0px"
	 viewBox="0 0 160 160" style="enable-background:new 0 0 160 160;" xml:space="preserve">
<style type="text/css">
	.st0{fill:#DAA900;}
	.st1{fill:none;stroke:#FFFFFF;stroke-width:3.97;stroke-miterlimit:10;}
	.st2{fill:none;}
	.st3{fill:#FFFFFF;}
</style>
<title>WOB_</title>
<path class="st0" d="M95.4,85.1h-1v-0.9c0.7-0.9,1.1-2.1,1.1-3.3c0-2.7-1.9-4.9-4.2-4.9c-0.4,0-0.8,0.1-1.1,0.2
	c-1-0.9-2.3-1.5-3.6-1.5c-0.6,0-1.2,0.1-1.7,0.3c-2.1-2.7-6-3.1-8.7-1c-0.4,0.3-0.7,0.6-1,1c-0.5-0.2-1.1-0.3-1.7-0.3
	c-3.1,0-5.5,2.8-5.5,6.2c0,1.3,0.4,2.6,1.1,3.7v21.3c0.1,2.2,1.9,3.9,4.1,3.8h17c2.2,0.1,4-1.6,4.1-3.8v-4h1
	c2.4,0.1,4.5-1.7,4.7-4.1v-8.6C99.9,86.8,97.8,84.9,95.4,85.1z M73.5,78.2c0.4,0,0.8,0.2,1.1,0.4c0.8,0.6,1.9,0.5,2.5-0.3
	c0.1-0.1,0.1-0.2,0.2-0.3c0.5-1.5,2.2-2.3,3.7-1.8c0.8,0.3,1.5,1,1.8,1.8c0.5,0.9,1.5,1.2,2.4,0.7c0.1-0.1,0.2-0.1,0.3-0.2
	c0.3-0.3,0.7-0.4,1.1-0.4c0.7,0.1,1.3,0.5,1.7,1.1c0.3,0.5,0.7,0.8,1.3,0.9c0.5,0.1,1.1-0.1,1.5-0.5c0.1-0.1,0.2-0.2,0.3-0.2
	c0.3,0,0.7,0.5,0.7,1.4s-0.5,1.4-0.7,1.4c-0.1,0-0.2-0.1-0.3-0.2c-0.4-0.4-0.9-0.6-1.5-0.5c-0.5,0.1-1,0.4-1.3,0.9
	c-0.3,0.6-0.9,1.1-1.6,1.1c-0.4,0-0.8-0.2-1.1-0.4c-0.7-0.6-1.8-0.5-2.5,0.2c-0.1,0.1-0.2,0.2-0.2,0.3c-0.5,1.5-2.2,2.3-3.7,1.8
	c-0.8-0.3-1.5-0.9-1.8-1.8c-0.2-0.5-0.7-0.8-1.2-0.9c-0.1,0-0.2,0-0.3,0c-0.4,0-0.8,0.1-1.1,0.4c-0.5,0.3-0.9,0.5-1.3,0.5
	c-0.5,0-1-0.2-1.3-0.6L72,82.8c-0.4-0.5-0.6-1.2-0.6-1.9C71.5,79.4,72.4,78.2,73.5,78.2z M90.9,105.9c0,0.1-0.2,0.3-0.7,0.3h-17
	c-0.4,0-0.6-0.2-0.6-0.3V87c0.3,0.1,0.6,0.1,0.9,0.1c0.6,0,1.1-0.1,1.7-0.3c2.1,2.7,6,3.1,8.7,1c0.4-0.3,0.7-0.6,1-1
	c0.6,0.2,1.1,0.3,1.7,0.3c1.4,0,2.6-0.6,3.6-1.5c0.2,0.1,0.5,0.1,0.7,0.1L90.9,105.9z M96.6,97.8c0,0.2-0.4,0.6-1.2,0.6h-1v-9.8h1
	c0.7,0,1.2,0.4,1.2,0.6V97.8z"/>
<g>
	<path class="st0" d="M75.5,90.4c-1,0-1.7,0.8-1.7,1.8v8.4c-0.1,1,0.6,1.8,1.6,1.9s1.8-0.6,1.9-1.6c0-0.1,0-0.2,0-0.3v-8.4
		C77.3,91.2,76.5,90.4,75.5,90.4L75.5,90.4z"/>
	<path class="st0" d="M81.6,90.4c-1,0-1.8,0.8-1.8,1.8v8.4c-0.1,1,0.6,1.8,1.6,1.9s1.8-0.6,1.9-1.6c0-0.1,0-0.2,0-0.3v-8.4
		C83.4,91.2,82.6,90.4,81.6,90.4z"/>
	<path class="st0" d="M87.8,90.4c-1,0-1.7,0.8-1.7,1.8v8.4c-0.1,1,0.6,1.8,1.6,1.9s1.8-0.6,1.9-1.6c0-0.1,0-0.2,0-0.3v-8.4
		C89.6,91.2,88.8,90.4,87.8,90.4z"/>
</g>
<path class="st0" d="M114.6,51.2c-1.4,0-2.7,0.2-4,0.8H48.2c-1-3.4-4.5-5.4-7.9-4.4s-5.4,4.5-4.4,7.9s4.5,5.4,7.9,4.4
	c2.1-0.6,3.8-2.3,4.4-4.4h9v18.4h-7c-1,0-1.8,0.8-1.8,1.8v39.9c0,1,0.8,1.8,1.8,1.8h62.9c1,0,1.7-0.8,1.7-1.7l0,0V75.6
	c0-1-0.8-1.7-1.7-1.7l0,0h-5.2V55.5h2.7c1.3,0.5,2.6,0.8,4,0.8c3.1,0,5.6-1.1,5.6-2.5S117.7,51.2,114.6,51.2z M42,56.6
	c-1.6,0-2.9-1.3-2.9-2.9c0-1.6,1.3-2.9,2.9-2.9c1.6,0,2.9,1.3,2.9,2.9l0,0C44.9,55.4,43.6,56.7,42,56.6z M111.4,77.3v36.5H51.9V77.3
	h5.2v3.6c-1.3,1-1.5,2.8-0.6,4.1s2.8,1.5,4.1,0.6s1.5-2.8,0.6-4.1c-0.2-0.2-0.4-0.4-0.6-0.6v-3.6h4.2c0.8,0,1.5-0.5,1.7-1.3
	c2.1-8.3,10.6-13.3,18.9-11.2c5.5,1.4,9.8,5.7,11.2,11.2c0.2,0.8,0.9,1.3,1.7,1.3h6v3.6c-1.3,1-1.5,2.8-0.6,4.1
	c1,1.3,2.8,1.5,4.1,0.6s1.5-2.8,0.6-4.1c-0.2-0.2-0.4-0.4-0.6-0.6v-3.6H111.4z M104.4,73.9h-4.7c-3.3-10-14.1-15.4-24.1-12
	c-5.7,1.9-10.1,6.4-12,12h-2.9V55.5h43.7L104.4,73.9z"/>
<path class="st1" d="M153.5,87.3c-2.5,38.2-34.1,68.6-73,68.8c-39.2,0.3-71.5-30-74-68.8"/>
<path id="SVGID_x5F_1_x5F_" class="st2" d="M15.6,82.7c0.1-35.8,29.2-64.7,65-64.5c35.8,0.1,64.7,29.2,64.5,65s-29.2,64.7-65,64.5
	S15.4,118.5,15.6,82.7z"/>
<path class="st1" d="M153.5,87.3c-2.5,38.2-34.1,68.6-73,68.8c-39.2,0.3-71.5-30-74-68.8"/>
<g>
	<path class="st3" d="M8.3,72.8l-0.7,7.5L4.9,80l0.7-7.5L8.3,72.8z"/>
	<path class="st3" d="M8,57.1c-0.4-0.1-0.8,0-0.9,0.5l-1.1,3.3c-0.1,0.4,0,0.8,0.5,0.9l7.8,2.5c0.4,0.1,0.8,0,0.9-0.5l1.1-3.3
		c0.1-0.4,0-0.8-0.5-0.9l-2.1-0.7l-0.8,2.6l-2.6-0.8l1.8-5.5l5.3,1.7c1.7,0.5,2.5,2.1,1.9,3.8l-1.5,4.7c-0.5,1.7-2.1,2.5-3.8,1.9
		l-8.9-2.9c-1.7-0.5-2.5-2.1-1.9-3.8L4.6,56c0.5-1.7,2.1-2.5,3.8-1.9l1.9,0.6l-0.9,2.9L8,57.1z"/>
	<path class="st3" d="M24.3,49.7l-6.1-0.5l-1.2,2.1L22,54l-1.4,2.7L7.3,49.4l3.7-6.8c0.8-1.6,2.5-2,4-1.2l3.1,1.7
		c1.3,0.7,1.8,1.9,1.5,3.2l6.2,0.5L24.3,49.7z M14.1,44.4c-0.4-0.2-0.7-0.1-1,0.3l-1.9,3.5l3.4,1.8l1.9-3.5c0.2-0.4,0.1-0.7-0.3-1
		L14.1,44.4z"/>
	<path class="st3" d="M20.9,28.9l2.2,1.8l-4.3,5.4l2.4,1.9l3.5-4.3l2.2,1.8l-3.5,4.3l2.7,2.2l4.3-5.4l2.2,1.8l-6.2,7.7l-11.8-9.4
		L20.9,28.9z"/>
	<path class="st3" d="M34.8,36.4l-2.4,2.1l-6.3-14.6l2.7-2.3l13.6,8.2L40,31.9L37,30l-3.7,3.2L34.8,36.4z M32.1,30.5l2.4-2.1
		l-4.8-3.1L32.1,30.5z"/>
	<path class="st3" d="M40.3,16.9l6.6,10.4l-2.6,1.6l-6.6-10.4l-3.3,2.1l-1.5-2.4l9.2-5.8l1.5,2.4L40.3,16.9z"/>
	<path class="st3" d="M49.3,9.1l9.3-3.3l0.9,2.7l-6.5,2.3l1.1,3l5.2-1.8l0.9,2.7l-5.2,1.8l2,5.8l-2.9,1L49.3,9.1z"/>
	<path class="st3" d="M69.3,3.7c1.7-0.3,3.1,0.7,3.4,2.5l1.5,9.2c0.3,1.7-0.7,3.1-2.5,3.4l-5,0.8c-1.7,0.3-3.1-0.7-3.4-2.5l-1.5-9.2
		c-0.3-1.7,0.7-3.1,2.5-3.4L69.3,3.7z M69.9,7.2c-0.1-0.5-0.4-0.7-0.8-0.6l-3.5,0.6c-0.5,0.1-0.7,0.4-0.6,0.8l1.3,8
		c0.1,0.5,0.4,0.7,0.8,0.6l3.5-0.6c0.5-0.1,0.7-0.4,0.6-0.8L69.9,7.2z"/>
	<path class="st3" d="M84,18.3l-2.3-5.7l-2.4-0.1l-0.1,5.6l-3-0.1L76.5,3l7.7,0.2c1.8,0,3,1.3,2.9,3.1L87,9.8c0,1.4-0.9,2.5-2.1,2.8
		l2.4,5.8L84,18.3z M84.1,6.7c0-0.5-0.2-0.7-0.7-0.7l-3.9-0.1l-0.1,3.8l3.9,0.1c0.5,0,0.7-0.2,0.7-0.7L84.1,6.7z"/>
	<path class="st3" d="M96.4,4.6l9.6,2.6l-0.7,2.8l-6.6-1.8l-0.8,3.1l5.4,1.4l-0.7,2.8L97,14.1l-1.6,6l-2.9-0.8L96.4,4.6z"/>
	<path class="st3" d="M109.9,25.4l0.2-6.1l-2.2-1l-2.4,5.1l-2.7-1.3l6.4-13.7l7,3.3c1.6,0.7,2.2,2.4,1.4,4l-1.5,3.2
		c-0.6,1.3-1.8,1.9-3.1,1.7l-0.1,6.3L109.9,25.4z M114.6,14.9c0.2-0.4,0.1-0.8-0.3-0.9l-3.6-1.7l-1.6,3.5l3.6,1.7
		c0.4,0.2,0.8,0.1,1-0.3L114.6,14.9z"/>
	<path class="st3" d="M121.8,14.8l2.5,1.6l-8.2,12.7l-2.5-1.6L121.8,14.8z"/>
	<path class="st3" d="M135.2,24.9l-1.8,2.2l-5.3-4.4l-2,2.4l4.3,3.6l-1.8,2.2l-4.3-3.6l-2.2,2.6l5.3,4.4l-1.8,2.2l-7.6-6.3l9.7-11.6
		L135.2,24.9z"/>
	<path class="st3" d="M145.4,36.6l-11.7,9.6l-2.1-2.5l4.4-10.9l-8,6.6l-1.8-2.2l11.7-9.6l2.1,2.5L135.6,41l8-6.6L145.4,36.6z"/>
	<path class="st3" d="M151.6,47.5c0.8,1.6,0.3,3.2-1.2,4l-8.1,4.3c-1.6,0.8-3.2,0.3-4-1.2l-3.7-6.9l13.3-7.2L151.6,47.5z
		 M140.5,52.6c0.2,0.4,0.6,0.5,1,0.3l7-3.8c0.4-0.2,0.5-0.6,0.3-1l-1.9-3.6l-8.3,4.5L140.5,52.6z"/>
	<path class="st3" d="M153.4,61.7c0.4-0.1,0.6-0.5,0.5-0.9l-0.9-2.9c-0.1-0.4-0.5-0.6-0.9-0.5l-1.4,0.4c-0.4,0.1-0.5,0.4-0.5,0.9
		l0.4,4c0.2,1.7-0.4,3.3-2,3.8l-2.6,0.8c-1.7,0.5-3.2-0.3-3.7-1.9l-1.4-4.5c-0.5-1.7,0.3-3.2,1.9-3.7l1.8-0.6l0.9,2.8l-1.3,0.4
		c-0.4,0.1-0.6,0.5-0.5,0.9l1,3.1c0.1,0.4,0.5,0.6,0.9,0.5l1.5-0.5c0.4-0.1,0.5-0.4,0.5-0.9l-0.4-4c-0.2-1.7,0.4-3.3,2-3.8l2.4-0.8
		c1.7-0.5,3.2,0.3,3.7,1.9l1.4,4.2c0.5,1.7-0.3,3.2-1.9,3.7l-1.7,0.5l-0.9-2.8L153.4,61.7z"/>
	<path class="st3" d="M152.3,80.3l-0.7-7.5l2.7-0.2l0.7,7.5L152.3,80.3z"/>
</g>
</svg>
