<?xml version="1.0" encoding="utf-8"?>
<!-- Generator: Adobe Illustrator 23.0.4, SVG Export Plug-In . SVG Version: 6.00 Build 0)  -->
<svg version="1.1" id="Layer_1" xmlns="http://www.w3.org/2000/svg" xmlns:xlink="http://www.w3.org/1999/xlink" x="0px" y="0px"
	 viewBox="0 0 202.5 36" style="enable-background:new 0 0 202.5 36;" xml:space="preserve">
<style type="text/css">
	.st0{fill:#DAA900;}
	.st1{fill-rule:evenodd;clip-rule:evenodd;fill:#DAA900;}
</style>
<g>
	<g>
		<path class="st0" d="M85,7.2C85,7.1,85.1,7,85.3,7h1.4c0.2,0,0.4,0.1,0.4,0.3l0.7,5.1c0,0,0,0.1,0,0.1c0,0,0,0,0.1,0s0,0,0-0.1
			l0.8-5.1C88.8,7.1,89,7,89.2,7h1.1c0.2,0,0.4,0.1,0.4,0.3l0.8,5.1c0,0,0,0.1,0,0.1s0,0,0.1,0c0,0,0,0,0-0.1l0.7-5.1
			c0-0.2,0.2-0.3,0.4-0.3h1.4c0.2,0,0.3,0.1,0.3,0.3c0,0,0,0.1,0,0.1L93,15.1c0,0.2-0.2,0.3-0.4,0.3h-1.7c-0.2,0-0.4-0.1-0.4-0.3
			l-0.7-3c0,0,0-0.1,0-0.1s0,0-0.1,0s0,0,0,0.1l-0.7,3c-0.1,0.2-0.2,0.3-0.4,0.3h-1.7c-0.2,0-0.4-0.1-0.4-0.3L85,7.4
			C85,7.3,85,7.3,85,7.2z"/>
		<path class="st0" d="M97.1,12.7v-3c0-0.2,0-0.4,0-0.6c0-0.2,0.1-0.4,0.2-0.8c0.1-0.3,0.3-0.6,0.5-0.8C98,7.3,98.3,7.1,98.7,7
			c0.4-0.2,0.9-0.2,1.4-0.2c0.5,0,1,0.1,1.4,0.2c0.4,0.2,0.7,0.3,0.9,0.6c0.2,0.2,0.4,0.5,0.5,0.8c0.1,0.3,0.2,0.6,0.2,0.8
			s0,0.4,0,0.6v3c0,0.2,0,0.4,0,0.6s-0.1,0.5-0.2,0.8c-0.1,0.3-0.3,0.6-0.5,0.8c-0.2,0.2-0.5,0.4-0.9,0.6s-0.9,0.2-1.4,0.2
			c-0.5,0-1-0.1-1.4-0.2c-0.4-0.2-0.7-0.3-0.9-0.6c-0.2-0.2-0.4-0.5-0.5-0.8c-0.1-0.3-0.2-0.6-0.2-0.8
			C97.1,13.2,97.1,12.9,97.1,12.7z M99.2,12.1c0,0.5,0.1,0.9,0.2,1.2c0.1,0.2,0.4,0.3,0.8,0.3s0.7-0.1,0.8-0.3
			c0.1-0.2,0.2-0.6,0.2-1.2v-1.8c0-0.5-0.1-0.9-0.2-1.2c-0.1-0.2-0.4-0.3-0.8-0.3s-0.7,0.1-0.8,0.3c-0.1,0.2-0.2,0.6-0.2,1.2V12.1z"
			/>
		<path class="st0" d="M106.2,15.1V7.3c0-0.1,0-0.2,0.1-0.3c0.1-0.1,0.2-0.1,0.3-0.1h2.7c1.1,0,1.8,0.2,2.3,0.7
			c0.5,0.5,0.7,1.2,0.7,2.2c0,1.2-0.3,1.9-0.9,2.4c0,0-0.1,0.1,0,0.2l1.3,2.4c0,0.1,0.1,0.2,0.1,0.2c0,0.1,0,0.1-0.1,0.2
			c-0.1,0.1-0.2,0.2-0.4,0.2h-1.4c-0.1,0-0.2-0.1-0.3-0.2l-1.3-2.4c0,0-0.1-0.1-0.1-0.1h-0.5c-0.1,0-0.2,0-0.3,0.1
			c-0.1,0.1-0.1,0.2-0.1,0.3v1.9c0,0.1,0,0.2-0.1,0.3s-0.2,0.1-0.3,0.1h-1.4c-0.1,0-0.2,0-0.3-0.1C106.2,15.3,106.2,15.2,106.2,15.1
			z M108.3,10.3c0,0.1,0,0.2,0.1,0.3s0.2,0.1,0.3,0.1h0.6c0.3,0,0.6-0.1,0.7-0.2c0.1-0.1,0.2-0.3,0.2-0.7c0-0.3-0.1-0.6-0.2-0.7
			c-0.1-0.1-0.4-0.2-0.7-0.2h-0.6c-0.1,0-0.2,0-0.3,0.1c-0.1,0.1-0.1,0.2-0.1,0.3V10.3z"/>
		<path class="st0" d="M115.3,7.3c0-0.2,0.1-0.4,0.4-0.4h1.4c0.2,0,0.4,0.1,0.4,0.4V13c0,0.2,0.1,0.4,0.4,0.4h2.7
			c0.2,0,0.4,0.1,0.4,0.4v1.4c0,0.2-0.1,0.4-0.4,0.4h-4.8c-0.2,0-0.4-0.1-0.4-0.4V7.3z"/>
		<path class="st0" d="M123.6,15.1V7.3c0-0.2,0.1-0.4,0.4-0.4h2.7c1.1,0,1.9,0.2,2.4,0.7c0.5,0.5,0.7,1.2,0.7,2.2v2.7
			c0,1-0.2,1.8-0.7,2.2c-0.5,0.5-1.2,0.7-2.4,0.7h-2.7C123.7,15.5,123.6,15.3,123.6,15.1z M125.7,13c0,0.2,0.1,0.4,0.4,0.4h0.7
			c0.3,0,0.5-0.1,0.7-0.2c0.1-0.1,0.2-0.3,0.2-0.7V9.9c0-0.3-0.1-0.6-0.2-0.7C127.2,9.1,127,9,126.7,9H126c-0.2,0-0.4,0.1-0.4,0.4
			V13z"/>
		<path class="st0" d="M138.2,12.7v-3c0-0.2,0-0.4,0-0.6s0.1-0.4,0.2-0.8c0.1-0.3,0.3-0.6,0.5-0.8c0.2-0.2,0.5-0.4,0.9-0.6
			c0.4-0.2,0.9-0.2,1.4-0.2s1,0.1,1.4,0.2c0.4,0.2,0.7,0.3,0.9,0.6c0.2,0.2,0.4,0.5,0.5,0.8c0.1,0.3,0.2,0.6,0.2,0.8
			c0,0.2,0,0.4,0,0.6v3c0,0.2,0,0.4,0,0.6c0,0.2-0.1,0.5-0.2,0.8c-0.1,0.3-0.3,0.6-0.5,0.8c-0.2,0.2-0.5,0.4-0.9,0.6
			c-0.4,0.2-0.9,0.2-1.4,0.2s-1-0.1-1.4-0.2s-0.7-0.3-0.9-0.6c-0.2-0.2-0.4-0.5-0.5-0.8c-0.1-0.3-0.2-0.6-0.2-0.8
			S138.2,12.9,138.2,12.7z M140.3,12.1c0,0.5,0.1,0.9,0.2,1.2c0.1,0.2,0.4,0.3,0.8,0.3s0.7-0.1,0.8-0.3c0.1-0.2,0.2-0.6,0.2-1.2
			v-1.8c0-0.5-0.1-0.9-0.2-1.2c-0.1-0.2-0.4-0.3-0.8-0.3s-0.7,0.1-0.8,0.3c-0.1,0.2-0.2,0.6-0.2,1.2V12.1z"/>
		<path class="st0" d="M147.3,7.3c0-0.2,0.1-0.4,0.4-0.4h5.2c0.2,0,0.4,0.1,0.4,0.4v1.4c0,0.2-0.1,0.4-0.4,0.4h-3.1
			c-0.2,0-0.4,0.1-0.4,0.4v0.4c0,0.2,0.1,0.4,0.4,0.4h2c0.2,0,0.4,0.1,0.4,0.4v1.4c0,0.2-0.1,0.4-0.4,0.4h-2c-0.2,0-0.4,0.1-0.4,0.4
			v2.5c0,0.2-0.1,0.4-0.4,0.4h-1.4c-0.2,0-0.4-0.1-0.4-0.4V7.3z"/>
		<path class="st0" d="M161.5,15.1V7.3c0-0.2,0.1-0.4,0.4-0.4h2.6c1.1,0,1.9,0.2,2.4,0.7s0.7,1.2,0.7,2.2c0,0.7-0.2,1.3-0.6,1.8
			c0.3,0.1,0.5,0.3,0.6,0.6c0.2,0.3,0.2,0.6,0.2,1c0,0.8-0.2,1.4-0.6,1.7c-0.4,0.4-1.2,0.5-2.3,0.5h-3
			C161.6,15.5,161.5,15.3,161.5,15.1z M163.6,13.4c0,0.2,0.1,0.4,0.4,0.4h0.8c0.3,0,0.6,0,0.7-0.1c0.1-0.1,0.2-0.2,0.2-0.5
			s-0.1-0.4-0.2-0.5c-0.1-0.1-0.3-0.1-0.7-0.1H164c-0.2,0-0.4,0.1-0.4,0.4V13.4z M163.6,10.3c0,0.2,0.1,0.4,0.4,0.4h0.7
			c0.3,0,0.6-0.1,0.7-0.2c0.1-0.1,0.2-0.3,0.2-0.7s-0.1-0.6-0.2-0.7C165.2,9.1,165,9,164.6,9H164c-0.2,0-0.4,0.1-0.4,0.4V10.3z"/>
		<path class="st0" d="M170.6,7.3c0-0.2,0.1-0.4,0.4-0.4h5.1c0.2,0,0.4,0.1,0.4,0.4v1.4c0,0.2-0.1,0.4-0.4,0.4h-2.9
			c-0.2,0-0.4,0.1-0.4,0.4v0.4c0,0.2,0.1,0.4,0.4,0.4h1.9c0.2,0,0.4,0.1,0.4,0.4v1.4c0,0.2-0.1,0.4-0.4,0.4h-1.9
			c-0.2,0-0.4,0.1-0.4,0.4V13c0,0.2,0.1,0.4,0.4,0.4h2.9c0.2,0,0.4,0.1,0.4,0.4v1.4c0,0.2-0.1,0.4-0.4,0.4h-5.1
			c-0.2,0-0.4-0.1-0.4-0.4V7.3z"/>
		<path class="st0" d="M179.3,7.3c0-0.2,0.1-0.4,0.4-0.4h5.1c0.2,0,0.4,0.1,0.4,0.4v1.4c0,0.2-0.1,0.4-0.4,0.4h-2.9
			c-0.2,0-0.4,0.1-0.4,0.4v0.4c0,0.2,0.1,0.4,0.4,0.4h1.9c0.2,0,0.4,0.1,0.4,0.4v1.4c0,0.2-0.1,0.4-0.4,0.4h-1.9
			c-0.2,0-0.4,0.1-0.4,0.4V13c0,0.2,0.1,0.4,0.4,0.4h2.9c0.2,0,0.4,0.1,0.4,0.4v1.4c0,0.2-0.1,0.4-0.4,0.4h-5.1
			c-0.2,0-0.4-0.1-0.4-0.4V7.3z"/>
		<path class="st0" d="M188,15.1V7.3c0-0.1,0-0.2,0.1-0.3s0.2-0.1,0.3-0.1h2.7c1.1,0,1.8,0.2,2.3,0.7c0.5,0.5,0.7,1.2,0.7,2.2
			c0,1.2-0.3,1.9-0.9,2.4c0,0-0.1,0.1,0,0.2l1.3,2.4c0,0.1,0.1,0.2,0.1,0.2c0,0.1,0,0.1-0.1,0.2c-0.1,0.1-0.2,0.2-0.4,0.2h-1.4
			c-0.1,0-0.2-0.1-0.3-0.2l-1.3-2.4c0,0-0.1-0.1-0.1-0.1h-0.5c-0.1,0-0.2,0-0.3,0.1c-0.1,0.1-0.1,0.2-0.1,0.3v1.9
			c0,0.1,0,0.2-0.1,0.3c-0.1,0.1-0.2,0.1-0.3,0.1h-1.4c-0.1,0-0.2,0-0.3-0.1S188,15.2,188,15.1z M190.1,10.3c0,0.1,0,0.2,0.1,0.3
			c0.1,0.1,0.2,0.1,0.3,0.1h0.6c0.3,0,0.6-0.1,0.7-0.2c0.1-0.1,0.2-0.3,0.2-0.7c0-0.3-0.1-0.6-0.2-0.7c-0.1-0.1-0.4-0.2-0.7-0.2
			h-0.6c-0.1,0-0.2,0-0.3,0.1c-0.1,0.1-0.1,0.2-0.1,0.3V10.3z"/>
	</g>
	<g>
		<path class="st0" d="M105.3,27.9c0,0.5-0.2,0.9-0.5,1.1c-0.3,0.3-0.7,0.4-1.2,0.4h-3.1v-5h3.1c0.4,0,0.7,0.1,1,0.4
			c0.3,0.3,0.4,0.6,0.4,1c0,0.5-0.2,0.8-0.5,1C105.1,27,105.3,27.4,105.3,27.9z M104.1,25.8c0-0.2-0.1-0.3-0.2-0.3
			c-0.1-0.1-0.2-0.1-0.3-0.1h-2.1v0.9h2.1c0.1,0,0.2,0,0.3-0.1C104.1,26.1,104.1,26,104.1,25.8z M104.3,27.9c0-0.2-0.1-0.4-0.2-0.5
			c-0.1-0.1-0.3-0.2-0.5-0.2h-2.1v1.2h2.1c0.2,0,0.3,0,0.5-0.2C104.3,28.2,104.3,28.1,104.3,27.9z"/>
		<path class="st0" d="M113,29.5h-1.1l-0.5-1.1h-2.6l-0.5,1.1h-1.1l2.4-5h1L113,29.5z M111,27.4l-0.8-1.8l-0.8,1.8H111z"/>
		<path class="st0" d="M119.7,29.5h-1.1l-1.1-1.9H116v1.9h-1v-5h3.1c0.4,0,0.8,0.2,1.1,0.5c0.3,0.3,0.5,0.7,0.5,1.1
			c0,0.3-0.1,0.6-0.3,0.9c-0.2,0.3-0.5,0.5-0.8,0.6L119.7,29.5z M118.7,26c0-0.2-0.1-0.3-0.2-0.4c-0.1-0.1-0.3-0.2-0.4-0.2H116v1.2
			h2.1c0.2,0,0.3-0.1,0.4-0.2C118.6,26.3,118.7,26.2,118.7,26z"/>
		<path class="st0" d="M128.3,25.6c-0.3-0.3-0.5-0.4-0.9-0.5c-0.1,0-0.3,0-0.4,0.1c-0.1,0.1-0.2,0.2-0.2,0.3c0,0.2,0.1,0.3,0.2,0.5
			l1.5,1.8c0.2-0.2,0.2-0.4,0.2-0.7h0.8c0,0.5-0.1,0.9-0.4,1.3l0.7,1h-1.1l-0.3-0.3c-0.2,0.2-0.5,0.3-0.7,0.3
			c-0.2,0.1-0.5,0.1-0.7,0.1c-0.5,0-0.9-0.1-1.2-0.4s-0.5-0.6-0.5-1.1c0-0.8,0.3-1.4,0.9-1.7c-0.2-0.3-0.3-0.6-0.3-0.9
			c0-0.3,0.1-0.5,0.3-0.8c0.2-0.2,0.6-0.4,1-0.4c0.6,0,1.1,0.3,1.4,0.7L128.3,25.6z M128,28.6l-1.2-1.5c-0.2,0.1-0.3,0.3-0.4,0.5
			c-0.1,0.2-0.1,0.4-0.1,0.5c0,0.2,0.1,0.3,0.2,0.5c0.1,0.1,0.3,0.2,0.6,0.2C127.4,28.8,127.7,28.7,128,28.6z"/>
		<path class="st0" d="M140.2,29.5h-1.1l-1.5-2.6l-1.1,1.2v1.4h-1v-5h1v2.2l2.1-2.2h1.3l-1.6,1.7L140.2,29.5z"/>
		<path class="st0" d="M142.5,29.5v-5h1v5H142.5z"/>
		<path class="st0" d="M150.2,25.4h-1.7v4.1h-1v-4.1h-1.7v-1h4.3V25.4z"/>
		<path class="st0" d="M157.1,28.4c-0.6,0.8-1.3,1.1-2.2,1.1c-0.7,0-1.3-0.3-1.8-0.8c-0.5-0.5-0.8-1.1-0.8-1.8
			c0-0.7,0.3-1.4,0.8-1.9c0.5-0.5,1.1-0.8,1.9-0.8c0.9,0,1.6,0.4,2.1,1.1l-0.8,0.5c-0.4-0.5-0.8-0.7-1.4-0.7c-0.5,0-0.8,0.2-1.2,0.5
			c-0.3,0.3-0.5,0.7-0.5,1.2c0,0.5,0.2,0.9,0.5,1.2c0.3,0.3,0.7,0.5,1.2,0.5c0.5,0,1-0.2,1.4-0.7L157.1,28.4z"/>
		<path class="st0" d="M164.1,29.5h-0.9v-2.2h-2.8v2.2h-1v-5h1v1.9h2.8v-1.9h0.9V29.5z"/>
		<path class="st0" d="M170.7,29.5h-4.1v-5h4v1h-3.1v0.9h1.8v1h-1.8v1.2h3.1V29.5z"/>
		<path class="st0" d="M178,29.5h-1l-2.8-3.5v3.5h-1v-5h0.9L177,28v-3.5h1V29.5z"/>
	</g>
	<g>
		<g>
			<g>
				<path class="st1" d="M26.9,15c0.3,1.8,0.7,3.6,1,5.4c0.1,0.3,0.1,0.7,0.3,1c0.2-1,0.3-2,0.5-2.9c0.6-4,1.1-8,1.7-11.9
					c0.1-0.5,0.9-1,1.5-1.1c1.5-0.2,2.9-0.1,4.4-0.1c1.1,0,1.6,0.5,1.4,1.7c-0.7,3.7-1.5,7.5-2.2,11.2c-0.8,4-1.6,8.1-2.4,12.1
					c-0.2,0.9-0.7,1.3-1.6,1.3c-1.8,0-3.6,0.1-5.4,0c-0.5,0-1.2-0.6-1.4-1c-0.6-2.4-1.1-4.9-1.7-7.3c-0.1-0.5-0.3-1-0.6-1.7
					c-0.3,1.5-0.6,2.7-0.9,4c-0.4,1.6-0.7,3.3-1.2,4.9c-0.2,0.5-0.9,1.2-1.4,1.2c-1.8,0.1-3.7,0.1-5.6,0.1c-1,0-1.3-0.7-1.5-1.6
					c-0.2-0.9-0.4-1.8-0.5-2.7c0-0.1,0.4-0.3,0.4-0.3c-0.2-0.3-0.6-0.6-0.7-1c-0.3-0.9-0.4-1.8-0.5-2.7c0,0,0,0,0.1-0.1
					c0,0-0.1,0-0.1,0.1c-0.4-2-0.8-4.1-1.2-6.1c-0.7-3.4-1.4-6.8-2-10.1C7.1,5.9,7.5,5.4,8.8,5.4c1.4,0,2.9,0,4.3,0
					c1,0,1.5,0.4,1.6,1.4c0.7,4.8,1.3,9.5,2,14.3c0,0.1,0,0.3,0.1,0.7c0.5-2.7,0.8-4.9,1.2-7.2c0.5-2.7,0.9-5.4,1.4-8.1
					c0.1-0.4,0.7-1,1.2-1c1.2-0.2,2.5-0.2,3.7,0c0.5,0,1.2,0.5,1.2,0.9C26.1,9.2,26.5,12.1,26.9,15c0,0.1,0,0.2,0,0.3
					c0,0,0.1,0,0.1,0C27,15.2,27,15.1,26.9,15z M25.6,18.9C25.6,18.9,25.6,18.9,25.6,18.9C25.6,18.9,25.6,18.9,25.6,18.9
					c0.1,0,0.1,0,0.1,0C25.7,18.9,25.6,19,25.6,18.9C25.6,18.9,25.6,18.9,25.6,18.9z M31,19.4C31,19.4,31,19.4,31,19.4
					C31,19.4,31,19.4,31,19.4C31,19.4,31,19.4,31,19.4C31,19.4,31,19.5,31,19.4C31,19.5,31,19.5,31,19.4C31,19.5,31,19.5,31,19.4z
					 M15.1,24.8C15.1,24.8,15.1,24.8,15.1,24.8C15.1,24.8,15.1,24.8,15.1,24.8C15.1,24.8,15.1,24.8,15.1,24.8
					C15.1,24.8,15.1,24.8,15.1,24.8z M31.1,24.4C31.1,24.4,31.1,24.4,31.1,24.4C31.1,24.4,31.1,24.4,31.1,24.4
					C31.1,24.4,31.1,24.4,31.1,24.4C31,24.4,31,24.4,31.1,24.4C31,24.4,31,24.4,31.1,24.4z M15,23.3L15,23.3L15,23.3
					c0.1,0,0.1,0,0.2,0l0,0l0,0C15.2,23.3,15.1,23.3,15,23.3z M31.2,30.5C31.2,30.4,31.2,30.4,31.2,30.5
					C31.2,30.4,31.2,30.4,31.2,30.5L31.2,30.5L31.2,30.5z M24.8,23.2C24.8,23.2,24.8,23.2,24.8,23.2C24.8,23.2,24.8,23.2,24.8,23.2
					C24.8,23.2,24.8,23.2,24.8,23.2C24.8,23.2,24.8,23.2,24.8,23.2z M33.2,23.3L33.2,23.3C33.2,23.3,33.2,23.3,33.2,23.3
					C33.2,23.4,33.2,23.3,33.2,23.3L33.2,23.3L33.2,23.3z M26.8,23.4c0-0.1,0-0.2,0-0.4c0,0,0.1-0.1,0.1-0.1c0,0,0,0-0.1,0
					c0,0,0,0.1,0,0.1C26.8,23.2,26.8,23.3,26.8,23.4C26.8,23.4,26.8,23.4,26.8,23.4C26.9,23.4,26.9,23.4,26.8,23.4
					C26.9,23.4,26.8,23.4,26.8,23.4z M26.3,16.8C26.3,16.8,26.3,16.8,26.3,16.8C26.3,16.8,26.3,16.7,26.3,16.8
					C26.3,16.7,26.3,16.8,26.3,16.8C26.4,16.8,26.3,16.8,26.3,16.8C26.3,16.8,26.3,16.8,26.3,16.8z M35.8,13.8c0.1,0,0.2,0,0.3,0
					c0,0,0,0,0,0c0,0,0,0,0,0C36,13.8,35.9,13.8,35.8,13.8C35.8,13.8,35.8,13.8,35.8,13.8C35.8,13.8,35.8,13.8,35.8,13.8z
					 M11.2,23.3C11.2,23.3,11.3,23.3,11.2,23.3C11.2,23.3,11.2,23.3,11.2,23.3C11.2,23.3,11.2,23.3,11.2,23.3z M15.2,18.1
					c0,0,0.1-0.1,0.1-0.1c0,0,0-0.1,0-0.1C15.2,18,15.2,18,15.2,18.1L15.2,18.1L15.2,18.1z M32.9,19.1c0,0,0.1-0.1,0.1-0.1
					c0,0,0,0,0,0C33,19,32.9,19.1,32.9,19.1c0,0-0.1-0.1-0.1-0.1c0,0,0,0.1,0,0.1C32.8,19.1,32.8,19.1,32.9,19.1z M27.1,19
					c-0.1-0.1-0.1-0.2-0.2-0.3c-0.1,0.1-0.2,0.1-0.2,0.2c0,0.1,0.1,0.2,0.2,0.2C27,19.2,27.1,19.1,27.1,19z M15.6,23
					c0,0,0-0.1,0-0.1c-0.2,0-0.4,0-0.6,0c0,0,0,0.1,0,0.1C15.2,23,15.4,23,15.6,23z M16.4,22.9C16.4,22.9,16.4,23,16.4,22.9
					c0.2,0,0.4,0,0.6,0c0,0,0,0,0,0C16.7,22.9,16.5,22.9,16.4,22.9z M31.1,27.9c0.1-0.1,0.2-0.2,0.2-0.3c-0.1,0-0.1-0.1-0.2-0.1
					c-0.1,0-0.2,0.1-0.2,0.2C31,27.7,31,27.8,31.1,27.9z M23.9,22.9C23.9,22.9,23.9,23,23.9,22.9c0.2,0.1,0.3,0.1,0.5,0.1
					c0,0,0,0,0,0C24.2,22.9,24.1,22.9,23.9,22.9z M15.3,27c0,0-0.1,0.1-0.1,0.1c0.1,0,0.1,0.1,0.2,0.1c0.1,0,0.1,0,0.2-0.1
					C15.4,27.1,15.4,27,15.3,27z M31.2,27.1C31.2,27.1,31.2,27.1,31.2,27.1c-0.2-0.1-0.3-0.1-0.5,0c0,0,0,0,0,0
					C30.9,27.1,31,27.1,31.2,27.1z M32.8,22.9C32.8,22.9,32.8,23,32.8,22.9C33,23,33.1,23,33.3,23c0,0,0-0.1,0-0.1
					C33.1,22.9,33,22.9,32.8,22.9z M31.2,19.1c0-0.1,0-0.1-0.1-0.1c-0.1,0-0.2,0-0.2,0.1c0,0,0.1,0.1,0.1,0.1
					C31.1,19.1,31.1,19.1,31.2,19.1z M11.4,22.9C11.4,22.9,11.4,23,11.4,22.9c0.2,0.1,0.3,0.1,0.5,0C11.8,22.9,11.6,22.9,11.4,22.9z
					 M15.3,19.2c0-0.1,0.1-0.1,0.1-0.2c0-0.1-0.1-0.1-0.1-0.2c0,0-0.1,0.1-0.1,0.1C15.2,19,15.2,19.1,15.3,19.2z M25.8,23
					c-0.1,0-0.1-0.1-0.1-0.1c-0.1,0-0.1,0-0.2,0c0,0,0.1,0,0.1,0C25.6,23,25.7,23,25.8,23z M26.9,27.7c0,0.1,0.1,0.1,0.1,0.1
					c0-0.1,0-0.1,0-0.2c0,0-0.1-0.1-0.1-0.1C26.9,27.5,26.9,27.6,26.9,27.7z M25.3,27.1c0,0-0.1,0-0.1,0
					C25.2,27.1,25.2,27.1,25.3,27.1C25.2,27.1,25.3,27.1,25.3,27.1C25.3,27.1,25.3,27.1,25.3,27.1z M12.9,23
					C12.9,23,12.9,22.9,12.9,23c-0.1-0.1-0.2-0.1-0.4-0.1c0,0,0,0,0,0.1C12.7,23,12.8,23,12.9,23z M15.4,13.8c0-0.1-0.1-0.1-0.1-0.2
					c0,0,0,0.1,0,0.1c0,0.1,0,0.1,0.1,0.2C15.3,13.9,15.3,13.9,15.4,13.8z M14,23C13.9,22.9,13.9,22.9,14,23c-0.1-0.1-0.2,0-0.2,0
					c0,0,0,0.1,0.1,0.1C13.9,23,13.9,23,14,23z M26.4,18.8c0,0.1-0.1,0.1-0.1,0.2c0,0,0,0.1,0.1,0.1c0,0,0.1-0.1,0.1-0.1
					C26.5,19,26.5,18.9,26.4,18.8z M18,23C17.9,22.9,17.9,22.9,18,23c-0.2-0.1-0.2,0-0.3,0c0,0,0,0.1,0.1,0.1C17.8,23,17.9,23,18,23
					z M23,19.2c0,0,0.1,0,0.1-0.1c0,0-0.1-0.1-0.1-0.1C23,19,22.9,19.1,23,19.2C22.9,19.1,23,19.2,23,19.2z M31.1,13.9
					c0-0.1,0.1-0.2,0.1-0.2c0,0,0-0.1-0.1-0.1c0,0.1-0.1,0.1-0.1,0.2C31,13.9,31,13.9,31.1,13.9z M27,20.7C27,20.6,27,20.6,27,20.7
					C27,20.6,27,20.6,27,20.7C26.9,20.6,26.9,20.6,27,20.7C27,20.7,27,20.7,27,20.7z M18.1,27.1c-0.1,0-0.1-0.1-0.1-0.1
					c0,0-0.1,0-0.1,0c0,0,0,0,0,0.1C17.9,27.2,18,27.2,18.1,27.1z M33.3,27.1c0,0-0.1,0-0.1-0.1c0,0,0,0-0.1,0c0,0,0,0.1,0.1,0.1
					C33.2,27.2,33.3,27.1,33.3,27.1z M26.5,27.1C26.5,27.1,26.4,27,26.5,27.1c-0.1,0-0.1,0-0.2,0C26.4,27.1,26.4,27.2,26.5,27.1
					C26.5,27.2,26.5,27.1,26.5,27.1z M32.2,27.1c-0.1,0-0.1,0-0.1,0c0,0,0,0.1,0,0.1C32,27.2,32.1,27.2,32.2,27.1
					C32.1,27.1,32.1,27.1,32.2,27.1z M31.1,23.1c0,0-0.1,0-0.1,0.1c0,0,0,0.1,0,0.1C31.1,23.3,31.2,23.3,31.1,23.1
					C31.2,23.2,31.2,23.2,31.1,23.1z M30.1,23.3C30.1,23.3,30.1,23.3,30.1,23.3C30,23.3,30,23.4,30.1,23.3
					C30.1,23.4,30.1,23.4,30.1,23.3C30.1,23.4,30.1,23.3,30.1,23.3z M28.8,27.1C28.8,27.1,28.8,27.1,28.8,27.1
					C28.8,27.1,28.8,27.1,28.8,27.1C28.8,27.1,28.8,27.1,28.8,27.1C28.8,27.1,28.8,27.1,28.8,27.1z M12.9,19C13,19,13,19,12.9,19
					C12.9,19,12.9,19,12.9,19C12.9,19,12.9,19,12.9,19C12.9,19,12.9,19,12.9,19z M12.7,13.9C12.7,13.9,12.7,13.9,12.7,13.9
					C12.7,14,12.8,14,12.7,13.9c0.1,0.1,0.1,0.1,0.1,0C12.8,13.9,12.8,13.9,12.7,13.9z M29.2,23C29.2,22.9,29.2,22.9,29.2,23
					c-0.1-0.1-0.1-0.1-0.2-0.1c0,0,0,0.1,0,0.1C29.2,23,29.2,23,29.2,23z M31.6,23c0,0,0.1,0,0.1,0C31.7,22.9,31.7,22.9,31.6,23
					C31.7,22.9,31.6,22.9,31.6,23C31.6,23,31.6,23,31.6,23z M26.5,23.3C26.5,23.2,26.5,23.2,26.5,23.3c-0.1-0.1-0.1-0.1-0.1,0
					c0,0,0,0.1,0,0.1C26.4,23.3,26.5,23.3,26.5,23.3z M31.8,19c0,0-0.1,0-0.1,0c0,0,0,0.1,0,0.1C31.6,19.1,31.7,19.1,31.8,19
					C31.7,19.1,31.7,19,31.8,19z M31.2,12.1C31.2,12,31.2,12,31.2,12.1C31.1,12,31.1,12,31,12C31.1,12,31.1,12.1,31.2,12.1
					C31.1,12.1,31.1,12.1,31.2,12.1z M19.3,14C19.3,14,19.3,13.9,19.3,14C19.3,13.9,19.3,13.9,19.3,14C19.3,13.9,19.3,13.9,19.3,14z
					 M13,11.9C12.9,11.9,12.9,11.9,13,11.9C12.9,11.9,12.9,11.9,13,11.9C12.9,12,13,11.9,13,11.9z M15.2,27.8c0,0-0.1,0-0.1,0
					c0,0,0,0.1,0,0.1C15.1,27.8,15.2,27.8,15.2,27.8C15.2,27.8,15.2,27.8,15.2,27.8z M20.7,13.9C20.7,13.9,20.7,13.9,20.7,13.9
					C20.6,13.9,20.6,13.9,20.7,13.9C20.7,14,20.7,14,20.7,13.9C20.7,14,20.7,13.9,20.7,13.9z M17.9,27.5
					C17.9,27.5,17.9,27.5,17.9,27.5C17.9,27.6,17.9,27.6,17.9,27.5C18,27.5,17.9,27.5,17.9,27.5C17.9,27.5,17.9,27.5,17.9,27.5z
					 M28.7,27.6C28.7,27.6,28.7,27.6,28.7,27.6C28.7,27.6,28.7,27.6,28.7,27.6C28.7,27.6,28.7,27.6,28.7,27.6z M31.1,12.7
					C31.1,12.7,31.1,12.7,31.1,12.7c-0.1-0.1-0.1,0-0.1,0C31,12.7,31,12.7,31.1,12.7C31.1,12.7,31.1,12.7,31.1,12.7z M15.3,12.7
					C15.3,12.7,15.3,12.7,15.3,12.7C15.3,12.7,15.3,12.6,15.3,12.7C15.3,12.6,15.2,12.6,15.3,12.7C15.2,12.7,15.2,12.7,15.3,12.7z
					 M26.5,12.6C26.5,12.6,26.5,12.6,26.5,12.6C26.4,12.6,26.4,12.6,26.5,12.6C26.4,12.7,26.4,12.7,26.5,12.6
					C26.5,12.7,26.5,12.7,26.5,12.6z M15.2,27.6C15.2,27.5,15.2,27.5,15.2,27.6c-0.1-0.1-0.1-0.1-0.1-0.1c0,0,0,0.1,0,0.1
					C15.1,27.6,15.2,27.6,15.2,27.6z M32.2,23.3C32.1,23.3,32.1,23.3,32.2,23.3C32.1,23.3,32.1,23.3,32.2,23.3
					C32.1,23.3,32.1,23.3,32.2,23.3C32.1,23.4,32.1,23.3,32.2,23.3z M28.7,23.3C28.7,23.3,28.7,23.3,28.7,23.3
					C28.7,23.3,28.7,23.3,28.7,23.3C28.7,23.3,28.7,23.4,28.7,23.3C28.7,23.4,28.7,23.3,28.7,23.3z M24,23.4
					C24,23.4,24.1,23.4,24,23.4c0,0,0-0.1,0-0.1L24,23.4C24,23.3,24,23.3,24,23.4z M12.8,23.3L12.8,23.3L12.8,23.3L12.8,23.3z
					 M12.1,23.3C12.1,23.3,12.1,23.4,12.1,23.3c0.1,0,0.1,0,0.1,0C12.2,23.3,12.2,23.3,12.1,23.3C12.1,23.3,12.1,23.3,12.1,23.3z
					 M15.3,20.6C15.3,20.6,15.3,20.6,15.3,20.6C15.2,20.6,15.2,20.6,15.3,20.6c-0.1,0.1-0.1,0.1-0.1,0.1
					C15.3,20.7,15.3,20.6,15.3,20.6z M30.1,23C30.1,23,30.1,23,30.1,23C30.1,23,30,22.9,30.1,23C30,23,30,23,30.1,23z M26.5,22.9
					C26.5,22.9,26.5,22.9,26.5,22.9c-0.1-0.1-0.2,0-0.2,0C26.4,23,26.4,23,26.5,22.9C26.5,23,26.5,23,26.5,22.9z M19.8,22.9
					C19.7,22.9,19.7,22.9,19.8,22.9C19.7,23,19.7,23,19.8,22.9C19.7,23,19.7,23,19.8,22.9z M18.7,23L18.7,23L18.7,23L18.7,23z
					 M26.5,13.9C26.5,13.9,26.5,13.9,26.5,13.9c-0.1-0.1-0.2,0-0.2,0C26.4,13.9,26.4,14,26.5,13.9C26.5,14,26.5,13.9,26.5,13.9z
					 M32.6,13.9L32.6,13.9L32.6,13.9L32.6,13.9z M33.3,13.9c0,0-0.1,0-0.1,0c0,0,0,0.1,0,0.1C33.1,14,33.2,14,33.3,13.9
					C33.2,14,33.2,13.9,33.3,13.9z M27.7,27.1C27.7,27.1,27.7,27.1,27.7,27.1c-0.1,0-0.1,0-0.1,0C27.6,27.1,27.6,27.1,27.7,27.1
					C27.6,27.1,27.7,27.1,27.7,27.1z M20.6,27.1L20.6,27.1L20.6,27.1L20.6,27.1z M13.9,27.1L13.9,27.1L13.9,27.1L13.9,27.1z
					 M13,27.1C13,27.1,12.9,27.1,13,27.1C12.9,27.1,12.9,27.1,13,27.1C12.9,27.1,13,27.1,13,27.1z M17.4,27.1
					C17.3,27.1,17.3,27,17.4,27.1c-0.1-0.1-0.1,0-0.1,0C17.3,27.1,17.3,27.1,17.4,27.1C17.3,27.1,17.3,27.1,17.4,27.1z M26.5,25.3
					C26.5,25.3,26.5,25.3,26.5,25.3C26.4,25.2,26.4,25.2,26.5,25.3C26.4,25.3,26.4,25.3,26.5,25.3C26.4,25.3,26.4,25.3,26.5,25.3z
					 M33.2,17C33.2,17,33.2,17,33.2,17C33.2,17,33.2,17,33.2,17C33.1,17,33.2,17,33.2,17z M11.4,19.1L11.4,19.1L11.4,19.1L11.4,19.1
					z M24.7,19.1C24.7,19.1,24.8,19.1,24.7,19.1c0-0.1,0-0.1,0-0.1C24.7,19,24.7,19,24.7,19.1C24.7,19,24.7,19.1,24.7,19.1z
					 M33.9,19C33.9,19,33.8,19,33.9,19C33.8,19,33.8,19,33.9,19C33.8,19.1,33.8,19.1,33.9,19C33.9,19.1,33.9,19,33.9,19z M17.9,19.1
					C17.9,19,17.9,19,17.9,19.1c-0.1,0-0.1,0-0.1,0l0,0.1C17.8,19.1,17.9,19.1,17.9,19.1z M19.1,19.1c0,0,0.1,0,0.1,0.1c0,0,0,0,0,0
					C19.2,19.1,19.2,19,19.1,19.1C19.1,19,19.1,19,19.1,19.1z M23.3,19C23.3,19,23.3,19.1,23.3,19c0,0.1,0,0.1,0,0.1
					C23.4,19.1,23.4,19.1,23.3,19C23.4,19.1,23.4,19,23.3,19z M36,9C36,9,35.9,9,36,9c0,0.1,0,0.1,0,0.2c0,0,0,0,0,0
					C36,9.1,36,9.1,36,9z M26.5,28.2C26.5,28.2,26.5,28.2,26.5,28.2C26.5,28.2,26.4,28.2,26.5,28.2C26.4,28.2,26.4,28.2,26.5,28.2
					C26.4,28.2,26.4,28.2,26.5,28.2z M7.6,6.8C7.6,6.7,7.6,6.7,7.6,6.8C7.6,6.7,7.6,6.7,7.6,6.8C7.6,6.8,7.6,6.8,7.6,6.8z
					 M15.3,29.2C15.3,29.2,15.2,29.2,15.3,29.2C15.2,29.2,15.3,29.2,15.3,29.2C15.3,29.2,15.3,29.2,15.3,29.2
					C15.3,29.2,15.3,29.2,15.3,29.2z M31.2,6.5C31.1,6.5,31.1,6.5,31.2,6.5c-0.1,0-0.1,0.1,0,0.1C31.1,6.6,31.2,6.6,31.2,6.5
					C31.2,6.5,31.2,6.5,31.2,6.5z M24.7,6.6c0,0,0,0.1,0,0.1c0,0,0,0,0,0C24.7,6.7,24.7,6.6,24.7,6.6C24.7,6.6,24.7,6.6,24.7,6.6z
					 M26.4,29.1C26.4,29.1,26.5,29.1,26.4,29.1C26.5,29,26.5,29,26.4,29.1C26.4,29,26.4,29,26.4,29.1C26.4,29,26.4,29,26.4,29.1z
					 M12.1,27.5L12.1,27.5L12.1,27.5L12.1,27.5z M13.4,27.5L13.4,27.5L13.4,27.5L13.4,27.5z M15.2,30.9L15.2,30.9L15.2,30.9
					L15.2,30.9z M12.6,10.3C12.6,10.3,12.6,10.3,12.6,10.3C12.6,10.3,12.6,10.3,12.6,10.3C12.6,10.3,12.6,10.3,12.6,10.3
					C12.6,10.3,12.6,10.3,12.6,10.3z M11.3,10.3L11.3,10.3L11.3,10.3L11.3,10.3z M15.3,15.2C15.3,15.2,15.2,15.3,15.3,15.2
					c-0.1,0.1-0.1,0.1-0.1,0.1C15.3,15.3,15.3,15.3,15.3,15.2C15.3,15.3,15.3,15.2,15.3,15.2z M32.7,10.3L32.7,10.3L32.7,10.3
					L32.7,10.3z M9.4,12.7L9.4,12.7L9.4,12.7L9.4,12.7z M28,27.5C28,27.5,28,27.6,28,27.5C28.1,27.6,28.1,27.5,28,27.5
					C28,27.5,28,27.5,28,27.5C28,27.5,28,27.5,28,27.5z M27.7,27.5C27.6,27.5,27.6,27.5,27.7,27.5C27.6,27.5,27.6,27.5,27.7,27.5
					C27.6,27.5,27.6,27.5,27.7,27.5C27.6,27.5,27.6,27.5,27.7,27.5z M26.4,27.5C26.4,27.5,26.4,27.5,26.4,27.5
					C26.4,27.6,26.4,27.6,26.4,27.5C26.4,27.5,26.4,27.5,26.4,27.5C26.4,27.5,26.4,27.5,26.4,27.5z M20.7,23.3
					C20.7,23.3,20.7,23.2,20.7,23.3C20.7,23.2,20.7,23.2,20.7,23.3C20.6,23.2,20.6,23.2,20.7,23.3C20.6,23.3,20.6,23.3,20.7,23.3z
					 M14,27.5C14.1,27.5,14.1,27.5,14,27.5C14.1,27.5,14,27.5,14,27.5C14,27.5,14,27.5,14,27.5z M22.2,19.1
					C22.2,19.1,22.3,19.1,22.2,19.1C22.3,19.1,22.2,19,22.2,19.1C22.2,19,22.2,19,22.2,19.1z M34.3,13.9L34.3,13.9L34.3,13.9
					L34.3,13.9z M19.5,27.1C19.5,27.1,19.5,27.1,19.5,27.1C19.5,27.1,19.5,27.1,19.5,27.1C19.5,27.1,19.5,27.1,19.5,27.1z
					 M29.6,27.1L29.6,27.1L29.6,27.1L29.6,27.1z M15.9,19.1C15.9,19.1,15.9,19,15.9,19.1C15.8,19,15.8,19,15.9,19.1
					C15.8,19,15.8,19.1,15.9,19.1C15.8,19.1,15.8,19.1,15.9,19.1z M27,27.2C27,27.1,27,27.1,27,27.2C27,27.1,26.9,27.1,27,27.2
					C26.9,27.1,26.9,27.1,27,27.2C26.9,27.1,26.9,27.1,27,27.2z M24.1,27.1L24.1,27.1L24.1,27.1L24.1,27.1z M12.1,19.1L12.1,19.1
					L12.1,19.1L12.1,19.1z M32.8,23.3C32.8,23.2,32.8,23.2,32.8,23.3C32.8,23.2,32.7,23.2,32.8,23.3C32.7,23.2,32.7,23.3,32.8,23.3
					C32.8,23.3,32.8,23.3,32.8,23.3z M31,14.9L31,14.9L31,14.9L31,14.9z M14.7,27.1L14.7,27.1L14.7,27.1L14.7,27.1z M24.7,13.9
					C24.7,13.9,24.7,13.9,24.7,13.9C24.7,13.9,24.6,13.9,24.7,13.9C24.7,14,24.7,14,24.7,13.9C24.7,14,24.7,13.9,24.7,13.9z
					 M20.5,23C20.5,23,20.5,22.9,20.5,23C20.4,23,20.4,23,20.5,23C20.5,23,20.5,23,20.5,23z M20.8,23L20.8,23L20.8,23L20.8,23z
					 M27,21.5C27,21.5,27,21.4,27,21.5c-0.1,0-0.1,0-0.1,0C26.9,21.5,26.9,21.5,27,21.5C26.9,21.5,27,21.5,27,21.5z M12.6,11.9
					C12.6,11.9,12.6,11.9,12.6,11.9C12.6,11.9,12.6,11.9,12.6,11.9C12.6,11.9,12.6,11.9,12.6,11.9C12.6,11.9,12.6,11.9,12.6,11.9z
					 M15.3,16.6C15.3,16.6,15.3,16.7,15.3,16.6C15.3,16.7,15.3,16.7,15.3,16.6C15.3,16.7,15.3,16.7,15.3,16.6
					C15.3,16.7,15.3,16.6,15.3,16.6z M32.8,10.7L32.8,10.7L32.8,10.7L32.8,10.7z M24.8,11.9C24.7,11.9,24.7,11.9,24.8,11.9
					C24.7,11.9,24.7,11.9,24.8,11.9C24.7,12,24.7,12,24.8,11.9C24.7,12,24.7,11.9,24.8,11.9z M31,10.7L31,10.7L31,10.7L31,10.7z
					 M27,16.9C27,16.9,27,16.9,27,16.9C27,16.9,27,16.9,27,16.9C27,16.9,27,16.9,27,16.9C27,16.9,27,16.9,27,16.9z M8.7,11.7
					L8.7,11.7L8.7,11.7L8.7,11.7z M19.2,11.6L19.2,11.6L19.2,11.6L19.2,11.6z M33.9,23L33.9,23L33.9,23L33.9,23z M34.3,23
					C34.3,23,34.3,23,34.3,23C34.3,23,34.3,22.9,34.3,23C34.3,22.9,34.3,23,34.3,23C34.2,23,34.3,23,34.3,23z M24.7,20.6L24.7,20.6
					L24.7,20.6L24.7,20.6z M33.2,12.5L33.2,12.5L33.2,12.5L33.2,12.5z M27.8,22.9C27.9,23,27.9,23,27.8,22.9
					C27.9,23,27.9,23,27.8,22.9C27.9,23,27.9,22.9,27.8,22.9C27.9,22.9,27.9,22.9,27.8,22.9z M28.7,23C28.7,23,28.7,22.9,28.7,23
					C28.7,22.9,28.7,22.9,28.7,23C28.7,22.9,28.7,23,28.7,23C28.7,23,28.7,23,28.7,23z M31.1,23C31.2,23,31.2,23,31.1,23
					C31.2,23,31.2,23,31.1,23C31.2,22.9,31.2,22.9,31.1,23C31.2,22.9,31.1,22.9,31.1,23z M26.4,30.1L26.4,30.1L26.4,30.1L26.4,30.1z
					 M17.9,20.6C17.9,20.6,17.8,20.6,17.9,20.6C17.8,20.6,17.8,20.7,17.9,20.6C17.9,20.7,17.9,20.7,17.9,20.6z M15.3,30.5
					C15.3,30.5,15.3,30.5,15.3,30.5C15.3,30.5,15.2,30.5,15.3,30.5C15.2,30.5,15.3,30.5,15.3,30.5C15.3,30.5,15.3,30.5,15.3,30.5z
					 M19.2,23L19.2,23L19.2,23L19.2,23z M27.4,22.9L27.4,22.9L27.4,22.9L27.4,22.9z M28.3,22.9L28.3,22.9L28.3,22.9L28.3,22.9z
					 M15.3,31.5L15.3,31.5L15.3,31.5L15.3,31.5z M30.7,27.5L30.7,27.5L30.7,27.5L30.7,27.5z M26.4,27.8L26.4,27.8L26.4,27.8
					L26.4,27.8z M24.7,28.2L24.7,28.2L24.7,28.2L24.7,28.2z M15.3,28.2L15.3,28.2L15.3,28.2L15.3,28.2z M14.6,27.5L14.6,27.5
					L14.6,27.5L14.6,27.5z M35.3,11.7L35.3,11.7L35.3,11.7L35.3,11.7z M36,11.6L36,11.6L36,11.6L36,11.6z M33.2,10.7L33.2,10.7
					L33.2,10.7L33.2,10.7z M24.7,12.7L24.7,12.7L24.7,12.7L24.7,12.7z M31.1,8.3L31.1,8.3L31.1,8.3L31.1,8.3z M33.2,8.9L33.2,8.9
					L33.2,8.9L33.2,8.9z M32.8,9L32.8,9L32.8,9L32.8,9z M12.3,19.2L12.3,19.2L12.3,19.2L12.3,19.2z M10.4,19L10.4,19L10.4,19
					L10.4,19z M26.4,21.4L26.4,21.4L26.4,21.4L26.4,21.4z M33.1,20.7L33.1,20.7L33.1,20.7L33.1,20.7z M33.8,13.7L33.8,13.7
					L33.8,13.7L33.8,13.7z M26.5,13.7C26.5,13.7,26.4,13.6,26.5,13.7C26.4,13.6,26.4,13.7,26.5,13.7C26.4,13.7,26.4,13.7,26.5,13.7
					C26.4,13.7,26.5,13.7,26.5,13.7z M31,15.3L31,15.3L31,15.3L31,15.3z M26.4,15.3L26.4,15.3L26.4,15.3L26.4,15.3z M24.7,15.3
					C24.7,15.3,24.7,15.3,24.7,15.3C24.7,15.3,24.7,15.3,24.7,15.3C24.7,15.3,24.7,15.3,24.7,15.3C24.7,15.3,24.7,15.3,24.7,15.3z"
					/>
			</g>
			<g>
				<path class="st0" d="M80.4,24c-0.1-0.2-0.2-0.3-0.1-0.5c0-0.1,0-0.2,0-0.3c-0.2-0.6-0.5-1.2-0.6-1.8l0,0c-0.2-0.3-0.3-0.7-0.5-1
					c-0.3-0.4-0.9-1-0.8-1.2c1.2-1.8,1.5-3.8,1.5-5.8c0,0-0.1,0-0.1,0c0-0.5,0-1.1,0-1.6c0-0.1,0-0.1,0-0.2c0-0.1,0-0.1,0-0.2
					c-0.4-2.3-1.3-4.3-3.7-5.2l0,0l0,0c-1.1-0.3-2.1-0.9-3.2-1c-1.4,0-2.7-0.1-4.1,0c-1,0.1-2,0.1-3.1,0c-0.4,0-1,0.1-1.4-0.1
					c-0.1,0-0.2-0.1-0.2-0.1c-0.9,0-1.7,0-2.5,0c-1,0-1.5,0.4-1.5,1.4c0,2.1,0,4.3,0,6.4c0,0.2,0.2,0.5,0.3,0.7c0,0,0,0,0,0
					c0,0,0,0,0,0c0,0,0,0,0,0c0,0,0,0,0,0.1c0,0,0,0,0,0c-0.1,0.2-0.3,0.4-0.3,0.7c0,1.5,0,3.1,0,4.6c0,3.8,0,7.6,0,11.4
					c0,0.4,0.6,1,1,1.1c0.3,0,0.5-0.1,0.8-0.1c0.8,0,1.6-0.1,2.4-0.1c0,0,0,0.1,0,0.1c0.3,0,0.6,0.1,1,0c0.4,0,0.8-0.1,1.3-0.1
					c0.6,0,1.2,0,1.8,0.1c0,0,0,0,0,0c2.1,0,4.2-0.1,6-0.2c3.7-0.2,5.8-2,6.2-5.2c0-0.3,0-0.6,0-0.9C80.5,24.8,80.6,24.4,80.4,24z
					 M60.3,9.9C60.3,9.9,60.3,10,60.3,9.9C60.3,10,60.3,10,60.3,9.9C60.3,9.9,60.3,9.9,60.3,9.9C60.3,9.9,60.3,9.9,60.3,9.9z
					 M60.2,18.8C60.3,18.8,60.3,18.7,60.2,18.8c0.1-0.1,0.1-0.1,0.1,0C60.3,18.8,60.3,18.8,60.2,18.8C60.3,18.8,60.2,18.8,60.2,18.8
					z M60.3,22.8c0,0,0.1-0.1,0.1-0.1c0,0,0,0.1,0,0.1C60.4,22.8,60.3,22.8,60.3,22.8C60.3,22.8,60.2,22.8,60.3,22.8z M60.3,27.3
					C60.3,27.3,60.3,27.3,60.3,27.3C60.3,27.3,60.4,27.3,60.3,27.3C60.4,27.3,60.3,27.3,60.3,27.3z M60.6,26.9
					C60.5,26.9,60.5,26.9,60.6,26.9C60.5,26.9,60.5,26.8,60.6,26.9C60.6,26.8,60.6,26.8,60.6,26.9C60.6,26.9,60.6,26.9,60.6,26.9z
					 M61.8,6.3L61.8,6.3L61.8,6.3L61.8,6.3z M61.8,11.6L61.8,11.6L61.8,11.6L61.8,11.6z M61.8,13.6C61.8,13.6,61.8,13.6,61.8,13.6
					C61.8,13.6,61.8,13.6,61.8,13.6C61.8,13.6,61.8,13.6,61.8,13.6C61.8,13.7,61.8,13.7,61.8,13.6C61.8,13.6,61.7,13.6,61.8,13.6
					C61.7,13.6,61.8,13.6,61.8,13.6z M61.8,23C61.8,23,61.8,23,61.8,23C61.8,23.1,61.8,23,61.8,23C61.8,23,61.8,23,61.8,23
					C61.8,23,61.8,23,61.8,23z M61.7,15C61.8,15,61.8,15,61.7,15C61.8,15,61.8,15,61.7,15C61.8,15,61.7,15,61.7,15
					C61.7,15,61.7,15,61.7,15z M61.8,18.8C61.8,18.8,61.8,18.8,61.8,18.8C61.8,18.8,61.7,18.8,61.8,18.8
					C61.7,18.8,61.7,18.8,61.8,18.8C61.7,18.8,61.8,18.8,61.8,18.8z M61.5,22.7c0,0-0.1,0-0.1-0.1C61.5,22.7,61.5,22.6,61.5,22.7
					c0.1-0.1,0.1-0.1,0.1,0C61.6,22.7,61.6,22.7,61.5,22.7z M61.7,26.9c0,0-0.1-0.1,0-0.1c0,0,0.1,0,0.1-0.1
					C61.8,26.8,61.8,26.8,61.7,26.9C61.8,26.9,61.8,26.9,61.7,26.9z M62,12.1c-0.1,0-0.1,0-0.2-0.1c0,0,0,0,0,0c0,0,0,0,0,0
					c0,0,0,0,0,0l0,0C61.9,12,62,12,62,12C62,12,62,12.1,62,12.1z M62.4,23L62.4,23L62.4,23L62.4,23z M62.8,26.9
					C62.8,26.9,62.7,26.9,62.8,26.9C62.7,26.8,62.8,26.8,62.8,26.9C62.8,26.8,62.8,26.9,62.8,26.9C62.8,26.9,62.8,26.9,62.8,26.9z
					 M63.2,22.8c-0.1,0-0.1,0-0.2-0.1c0.1,0,0.1-0.1,0.2-0.1c0,0,0.1,0.1,0.1,0.1C63.3,22.7,63.3,22.8,63.2,22.8z M63.9,26.9
					C63.9,26.9,63.9,26.9,63.9,26.9C63.9,26.9,63.9,26.9,63.9,26.9C63.9,26.9,63.9,26.9,63.9,26.9z M64.4,26.9
					C64.4,26.9,64.3,26.9,64.4,26.9C64.3,26.8,64.4,26.8,64.4,26.9C64.4,26.8,64.4,26.8,64.4,26.9C64.4,26.9,64.4,26.9,64.4,26.9z
					 M64.4,22.7C64.4,22.7,64.4,22.7,64.4,22.7C64.4,22.7,64.4,22.7,64.4,22.7C64.4,22.7,64.5,22.7,64.4,22.7
					C64.5,22.7,64.4,22.7,64.4,22.7z M64.8,22.7L64.8,22.7L64.8,22.7L64.8,22.7z M65.2,23C65.3,23,65.3,23.1,65.2,23
					C65.3,23.1,65.3,23.1,65.2,23C65.2,23.1,65.2,23.1,65.2,23C65.2,23,65.2,23,65.2,23z M65.3,26.9L65.3,26.9L65.3,26.9L65.3,26.9z
					 M65.2,27.6L65.2,27.6L65.2,27.6L65.2,27.6z M65.2,27.3C65.2,27.3,65.2,27.3,65.2,27.3C65.2,27.2,65.2,27.2,65.2,27.3
					c0.1-0.1,0.1-0.1,0.1,0C65.3,27.3,65.2,27.3,65.2,27.3z M65.3,22.7C65.2,22.7,65.2,22.7,65.3,22.7
					C65.2,22.7,65.3,22.6,65.3,22.7c0.1-0.1,0.1-0.1,0.1,0C65.3,22.7,65.3,22.7,65.3,22.7z M73.4,18.7
					C73.4,18.8,73.4,18.8,73.4,18.7C73.4,18.8,73.4,18.8,73.4,18.7C73.4,18.8,73.3,18.8,73.4,18.7C73.3,18.8,73.4,18.8,73.4,18.7z
					 M72.9,10L72.9,10L72.9,10L72.9,10z M72.2,11.3C72.2,11.3,72.2,11.3,72.2,11.3C72.2,11.4,72.2,11.4,72.2,11.3
					C72.2,11.4,72.1,11.4,72.2,11.3C72.1,11.3,72.2,11.3,72.2,11.3z M72.2,11.6L72.2,11.6L72.2,11.6L72.2,11.6z M72.1,10.4
					c-0.1,0-0.1,0-0.2,0c0,0,0,0-0.1,0c0-0.1-0.1-0.2-0.1-0.4c0,0,0,0,0,0c0,0.1,0.1,0.2,0.1,0.4C72,10.5,72,10.4,72.1,10.4z
					 M71.8,9.6L71.8,9.6L71.8,9.6L71.8,9.6z M71.8,5.7C71.8,5.7,71.8,5.7,71.8,5.7C71.8,5.7,71.8,5.7,71.8,5.7
					C71.8,5.7,71.8,5.7,71.8,5.7C71.7,5.7,71.7,5.7,71.8,5.7z M71.7,6.7C71.8,6.7,71.8,6.7,71.7,6.7c0.1,0.2,0.1,0.3,0.1,0.5
					c0,0,0,0-0.1,0C71.7,7,71.7,6.9,71.7,6.7z M71.8,7.8C71.8,7.9,71.8,7.9,71.8,7.8C71.8,7.8,71.7,7.8,71.8,7.8
					C71.8,7.8,71.8,7.8,71.8,7.8C71.8,7.8,71.8,7.8,71.8,7.8z M71.8,8.5c0,0.2,0,0.3,0,0.5c0,0,0,0-0.1,0
					C71.7,8.9,71.7,8.7,71.8,8.5C71.8,8.5,71.8,8.5,71.8,8.5z M66.9,6.5C66.9,6.5,66.9,6.5,66.9,6.5C66.9,6.6,66.9,6.6,66.9,6.5
					C66.9,6.5,66.9,6.5,66.9,6.5C66.9,6.5,66.9,6.5,66.9,6.5z M66.9,10.1L66.9,10.1L66.9,10.1L66.9,10.1z M66.9,11.4L66.9,11.4
					L66.9,11.4L66.9,11.4z M66.9,11.6C66.9,11.6,66.9,11.7,66.9,11.6c0,0.1,0,0.1,0,0.1C66.9,11.7,66.8,11.7,66.9,11.6
					C66.8,11.7,66.9,11.6,66.9,11.6z M66.8,13.8c0-0.5,0-0.9,0.2-1.3c0-0.1,0.1-0.4,0.2-0.4c0.2-0.1,0.7,0.1,0.9,0
					c0.1,0,0.3,0,0.4,0c0,0,0-0.1,0-0.1c0.3,0,0.6,0.1,0.8,0.1c0.4,0,0.8,0,1.3,0c0.4,0,1.1,0.1,1.5,0.4c0.4,0.4,0.4,1.1,0.4,1.7
					c0,0.3,0,0.5-0.1,0.8c0,0.2,0,0.4-0.1,0.6c-0.1,0.3-0.6,0.8-0.9,0.8c0.2,0.2-0.7,0.2-0.8,0.2c-0.3,0-0.6,0-0.9-0.1
					c-0.5-0.2-1.1-0.1-1.6-0.1c-0.3,0-0.5,0-0.7-0.1C67.1,16.3,67,16.2,67,16c-0.1-0.4-0.1-0.7-0.1-1.1c0-0.2,0-0.5-0.1-0.7
					C66.8,14.1,66.5,13.8,66.8,13.8z M72.2,21.2C72.2,21.2,72.1,21.2,72.2,21.2C72.1,21.2,72.1,21.2,72.2,21.2
					C72.1,21.2,72.1,21.2,72.2,21.2C72.2,21.2,72.2,21.2,72.2,21.2z M72.2,20.3L72.2,20.3L72.2,20.3L72.2,20.3z M72,18.9
					c-0.1,0-0.2-0.1-0.2-0.1c0.1-0.1,0.1-0.2,0.2-0.2c0.1,0,0.3,0.1,0.6,0.2C72.2,18.9,72.1,18.9,72,18.9z M71.8,20.4L71.8,20.4
					L71.8,20.4L71.8,20.4z M71.8,21.4c0,0,0,0.1,0,0.1C71.8,21.5,71.7,21.5,71.8,21.4C71.7,21.4,71.8,21.4,71.8,21.4
					C71.8,21.4,71.8,21.4,71.8,21.4z M71.7,20.1C71.8,20.1,71.8,20.1,71.7,20.1c0.1-0.1,0.1,0,0.1,0C71.8,20.1,71.8,20.2,71.7,20.1
					C71.8,20.2,71.8,20.1,71.7,20.1z M71.8,17c0-0.1-0.1-0.1-0.1-0.2c0,0,0-0.1,0.1-0.1c0,0.1,0.1,0.1,0.1,0.2
					C71.8,16.9,71.8,17,71.8,17z M71.8,18C71.8,18.1,71.8,18.1,71.8,18C71.8,18.1,71.7,18.1,71.8,18c-0.1,0-0.1-0.1,0-0.1
					C71.8,18,71.8,18,71.8,18z M72.2,17.7L72.2,17.7L72.2,17.7L72.2,17.7z M70.3,18.8C70.3,18.8,70.3,18.8,70.3,18.8
					C70.3,18.8,70.3,18.8,70.3,18.8C70.3,18.8,70.3,18.8,70.3,18.8C70.3,18.8,70.3,18.8,70.3,18.8z M66.9,18.8
					C66.9,18.8,66.9,18.7,66.9,18.8c0-0.1,0-0.1,0-0.2C66.9,18.7,67,18.7,66.9,18.8C67,18.7,66.9,18.8,66.9,18.8z M66.9,20.4
					C66.9,20.4,66.9,20.4,66.9,20.4C66.9,20.4,66.9,20.4,66.9,20.4C66.9,20.4,66.9,20.4,66.9,20.4C66.9,20.4,66.9,20.4,66.9,20.4z
					 M66.9,21.2C66.9,21.2,66.9,21.2,66.9,21.2C66.9,21.2,66.9,21.2,66.9,21.2C66.9,21.2,66.9,21.2,66.9,21.2
					C66.9,21.2,66.9,21.2,66.9,21.2z M66.4,18.8L66.4,18.8L66.4,18.8L66.4,18.8z M65.8,26.9C65.7,26.9,65.7,26.9,65.8,26.9
					C65.7,26.9,65.7,26.8,65.8,26.9C65.7,26.8,65.7,26.8,65.8,26.9C65.8,26.9,65.8,26.9,65.8,26.9z M66,22.7L66,22.7L66,22.7
					L66,22.7z M66,23C66,23,66,23,66,23L66,23L66,23C66,23,66,23,66,23L66,23L66,23z M66.4,27.3L66.4,27.3L66.4,27.3L66.4,27.3z
					 M66.3,26.9C66.3,26.9,66.3,26.8,66.3,26.9c0.2-0.1,0.3-0.1,0.5-0.1c0,0,0,0,0,0.1C66.6,26.9,66.5,26.9,66.3,26.9z M66.9,28
					C66.9,28,66.8,27.9,66.9,28C66.9,27.9,66.9,27.9,66.9,28C66.9,27.9,66.9,27.9,66.9,28C66.9,28,66.9,28,66.9,28z M67.5,26.9
					C67.5,26.9,67.5,26.9,67.5,26.9C67.5,26.9,67.5,26.8,67.5,26.9C67.6,26.8,67.6,26.8,67.5,26.9C67.6,26.9,67.6,26.9,67.5,26.9z
					 M68.2,26.9C68.2,26.9,68.1,26.9,68.2,26.9C68.1,26.8,68.2,26.8,68.2,26.9C68.2,26.8,68.2,26.8,68.2,26.9
					C68.2,26.9,68.2,26.9,68.2,26.9z M68.5,27.9C68.5,27.9,68.5,27.9,68.5,27.9C68.6,27.9,68.6,27.9,68.5,27.9
					C68.5,27.9,68.5,27.9,68.5,27.9z M70.4,26.9c0,0-0.1,0-0.1,0c0,0,0,0,0-0.1C70.3,26.8,70.4,26.8,70.4,26.9
					C70.4,26.9,70.4,26.9,70.4,26.9z M70.8,27.3L70.8,27.3L70.8,27.3L70.8,27.3z M71.7,27.5c0,0,0-0.1,0-0.1c0,0,0.1,0.1,0.1,0.1
					C71.8,27.5,71.8,27.5,71.7,27.5C71.8,27.5,71.8,27.5,71.7,27.5z M71.8,27.9C71.8,27.9,71.8,27.9,71.8,27.9
					C71.7,27.9,71.7,27.9,71.8,27.9C71.8,27.9,71.8,27.9,71.8,27.9C71.8,27.9,71.8,27.9,71.8,27.9z M71.8,28.7
					C71.8,28.7,71.8,28.7,71.8,28.7c0,0.1,0,0.1,0,0.1c0,0,0,0,0,0C71.7,28.8,71.8,28.7,71.8,28.7z M71.8,30.1c0,0.2,0,0.3,0,0.5
					c0,0,0,0,0,0C71.8,30.4,71.8,30.2,71.8,30.1C71.8,30.1,71.8,30.1,71.8,30.1z M71.8,31.2c0,0-0.1-0.1-0.1-0.1c0,0,0-0.1,0.1-0.1
					c0,0,0,0.1,0.1,0.1C71.8,31.1,71.8,31.2,71.8,31.2z M72.2,30.2L72.2,30.2L72.2,30.2L72.2,30.2z M72.1,29.9
					C72.1,29.9,72.1,29.8,72.1,29.9c0-0.1,0-0.1,0.1-0.1C72.2,29.8,72.2,29.8,72.1,29.9C72.2,29.9,72.2,29.9,72.1,29.9z M72.2,28.8
					L72.2,28.8L72.2,28.8L72.2,28.8z M72.2,27.9L72.2,27.9L72.2,27.9L72.2,27.9z M72.2,27.6C72.2,27.5,72.2,27.5,72.2,27.6
					C72.2,27.5,72.2,27.5,72.2,27.6C72.2,27.5,72.2,27.5,72.2,27.6C72.2,27.6,72.2,27.6,72.2,27.6z M72.3,26.9c-0.2,0-0.4,0-0.5,0
					c0-0.1,0-0.2,0-0.2c0.2,0,0.3,0,0.5,0C72.3,26.8,72.3,26.8,72.3,26.9z M71.7,26.2L71.7,26.2L71.7,26.2L71.7,26.2z M72.9,24.5
					c0,0-0.1,0-0.1,0c0,0,0,0.2,0,0.2c0,0.1-0.2,0.2-0.2,0.3c0,0,0,0-0.1,0c-0.2,0.2-0.5,0.3-0.7,0.5c-0.3,0.2-0.5,0.2-0.8,0.2
					c0,0,0,0,0.1,0.1c-0.4,0.1-0.8,0.1-1.2-0.1c-0.1,0-0.2-0.1-0.3-0.2c-0.1,0-0.2,0-0.3,0c-0.2,0-0.4,0-0.6,0
					c-0.4,0-0.8-0.1-1.2-0.1c-0.2,0-0.5-0.1-0.6-0.3c-0.1-0.2-0.1-0.6-0.1-0.9c0-0.1,0-0.2,0-0.4c0-0.1-0.2-0.2-0.1-0.3
					c0.1,0,0.1,0.1,0.2,0c0,0,0-0.2,0-0.2c0-0.2,0-0.4,0-0.6c0.1-0.2,0.3-0.4,0.4-0.4c0.2-0.1,0.5,0,0.7,0c0,0,0,0,0,0.1
					c0.2,0,0.3,0,0.5,0c0.4,0,0.8,0,1.2,0l0,0c0.1,0,0.3,0,0.4,0c0.2,0,0.5,0.1,0.7,0.1c0.2,0,0.4,0,0.5,0c0.2,0,0.3,0.1,0.5,0.1
					c0.1,0,0.3,0.1,0.4,0.2c0.3,0.2,0.5,0.5,0.6,0.8c0,0.2,0,0.4,0.1,0.6C72.8,24.2,72.8,24.3,72.9,24.5
					C72.9,24.5,72.9,24.4,72.9,24.5z M73.4,26.9c0,0-0.1,0-0.1,0c0,0,0-0.1,0-0.1C73.3,26.8,73.4,26.8,73.4,26.9
					C73.4,26.9,73.4,26.9,73.4,26.9z M73.5,22.7L73.5,22.7L73.5,22.7L73.5,22.7z M74,26.9L74,26.9L74,26.9L74,26.9z M74,22.8
					C73.9,22.7,73.9,22.7,74,22.8c-0.1-0.1,0-0.1,0-0.1c0,0,0.1,0,0.1,0.1C74,22.7,74,22.8,74,22.8z M77,11.4L77,11.4L77,11.4
					L77,11.4z M76.6,22.7C76.7,22.7,76.7,22.7,76.6,22.7C76.6,22.7,76.6,22.7,76.6,22.7C76.6,22.7,76.6,22.7,76.6,22.7
					C76.6,22.7,76.6,22.6,76.6,22.7z M75.9,10.4c0,0,0.1,0.1,0.1,0.1c0,0,0,0.1-0.1,0.1c0,0-0.1-0.1-0.1-0.1
					C75.9,10.4,75.9,10.4,75.9,10.4z M76,13.4L76,13.4L76,13.4L76,13.4z M75.9,12.7L75.9,12.7L75.9,12.7L75.9,12.7z M75.9,18
					C75.9,17.9,76,17.9,75.9,18C76,18,76,18,75.9,18C76,18,75.9,18,75.9,18C75.9,18,75.9,18,75.9,18z M75.9,11.8
					C75.9,11.7,75.9,11.7,75.9,11.8C75.9,11.7,76,11.7,75.9,11.8C76,11.7,76,11.7,75.9,11.8C76,11.8,75.9,11.8,75.9,11.8z
					 M74.5,26.9C74.5,26.9,74.5,26.9,74.5,26.9C74.5,26.8,74.5,26.8,74.5,26.9C74.6,26.8,74.6,26.9,74.5,26.9
					C74.6,26.9,74.5,26.9,74.5,26.9z M74.8,18.8L74.8,18.8L74.8,18.8L74.8,18.8z M75,23.1C75,23.1,75,23.1,75,23.1
					C75,23.1,75,23,75,23.1C75,23,75,23.1,75,23.1C75,23.1,75,23.1,75,23.1z M75.1,11.4L75.1,11.4L75.1,11.4L75.1,11.4z M75.1,22.7
					C75.2,22.7,75.2,22.7,75.1,22.7C75.2,22.7,75.2,22.7,75.1,22.7C75.2,22.7,75.2,22.7,75.1,22.7C75.2,22.7,75.2,22.7,75.1,22.7z
					 M75.3,26.9c0,0-0.1,0-0.1,0v0C75.3,26.8,75.3,26.8,75.3,26.9C75.3,26.9,75.3,26.9,75.3,26.9z M75.8,27.3L75.8,27.3L75.8,27.3
					L75.8,27.3z M75.9,27.5C75.9,27.5,75.9,27.5,75.9,27.5C76,27.5,76,27.5,75.9,27.5C75.9,27.6,75.9,27.6,75.9,27.5
					C75.9,27.5,75.9,27.5,75.9,27.5z M76,30.1C76,30.1,75.9,30.1,76,30.1C75.9,30.1,75.9,30.1,76,30.1C75.9,30,76,30,76,30.1
					C76,30.1,76,30.1,76,30.1z M76,29.1C76,29.1,75.9,29.1,76,29.1C75.9,29,75.9,29,76,29.1C76,29,76,29,76,29.1
					C76,29,76,29.1,76,29.1z M76,26.9c0,0-0.1,0-0.1,0c0,0,0-0.1,0.1-0.1C75.9,26.8,76,26.8,76,26.9C76,26.8,76,26.9,76,26.9z
					 M75.9,23.1c0,0,0-0.1,0-0.1c0,0,0,0,0.1,0C76,23,76,23.1,75.9,23.1C76,23.1,75.9,23.1,75.9,23.1z M76,24.8
					C76,24.8,76,24.8,76,24.8C75.9,24.8,75.9,24.7,76,24.8C76,24.7,76,24.7,76,24.8z M75.9,22.7L75.9,22.7L75.9,22.7L75.9,22.7z
					 M76,22.4C75.9,22.4,75.9,22.4,76,22.4C75.9,22.4,75.9,22.4,76,22.4C75.9,22.4,76,22.4,76,22.4C76,22.4,76,22.4,76,22.4z
					 M75.9,18.9C75.9,18.9,75.9,18.8,75.9,18.9c0-0.1,0-0.1,0-0.2c0,0,0.1,0.1,0.1,0.1C76,18.9,75.9,18.9,75.9,18.9z M76.3,27.3
					C76.3,27.3,76.3,27.3,76.3,27.3C76.3,27.2,76.3,27.2,76.3,27.3C76.4,27.2,76.4,27.3,76.3,27.3C76.4,27.3,76.3,27.3,76.3,27.3z
					 M76.4,26.9C76.4,26.9,76.4,26.8,76.4,26.9c0-0.1,0-0.1,0.1-0.1c0,0,0.1,0,0.1,0.1C76.5,26.9,76.5,26.9,76.4,26.9z M76.6,27.5
					L76.6,27.5L76.6,27.5L76.6,27.5z M76.5,23.1c0-0.1-0.1-0.1-0.1-0.2c0.1,0,0.1-0.1,0.2,0c0.1,0,0.1,0.1,0.2,0.1
					C76.6,23.1,76.6,23.1,76.5,23.1z M77,22.7L77,22.7L77,22.7L77,22.7z M77,18.7L77,18.7L77,18.7L77,18.7z M77.2,26.9
					c0,0-0.1,0-0.1,0c0,0,0-0.1,0-0.1C77.2,26.8,77.3,26.8,77.2,26.9C77.3,26.9,77.3,26.9,77.2,26.9z M78.4,22.7c-0.2,0-0.3,0-0.5,0
					c0,0,0,0,0-0.1C78.1,22.7,78.3,22.7,78.4,22.7C78.4,22.7,78.4,22.7,78.4,22.7z M79.4,26.9L79.4,26.9L79.4,26.9L79.4,26.9z
					 M79.8,22.7C79.8,22.7,79.8,22.7,79.8,22.7C79.8,22.7,79.8,22.7,79.8,22.7c0-0.1,0.1-0.1,0.1,0C79.9,22.7,79.9,22.7,79.8,22.7z"
					/>
			</g>
			<g>
				<path class="st1" d="M56.8,28c-0.3-0.2-0.8,0-1.2-0.1c-0.2,0-0.3,0-0.5-0.1c-0.1,0-0.2,0.1-0.3,0.1c-0.3,0-0.4-0.1-0.6-0.2
					c0,0-0.1,0-0.1,0c-0.5-0.1-1-0.1-1.5-0.2c-0.1,0-0.2,0-0.3,0c-0.3,0-0.5-0.1-0.8-0.1c0,0,0,0,0,0c0,0,0,0,0,0c0,0,0,0,0,0
					c0,0,0,0,0,0.1c0,0,0,0-0.1,0c0,0,0,0,0.1,0c0,0,0,0,0,0c-0.7-0.3-1.5-0.7-2.2-0.7c-1.4-0.1-3.1-0.1-4.7,0c0,0-0.1,0-0.1,0
					c-0.4,0.1-0.7,0.1-1,0c-0.3,0-0.6,0-0.9,0c-0.7,0-1.3,0-1.8,0c-0.2,0-0.5,0.1-0.6,0.2c-0.8,0.4-0.8,1.1-0.8,1.8
					c0,0.1,0.1,0.2,0.1,0.4c0.1,0.4,0,0.7,0,1.1c0,0.1,0.1,0.3,0.1,0.4c0,0.1,0.1,0.1,0.1,0.2c0.3,0.4,0.8,0.5,1.7,0.5
					c0.9,0,2,0,3.2,0l0,0c0,0,0,0,0.1,0c0.4,0,0.8,0,1.1,0c0.3,0,0.6,0,0.9-0.1c0.2,0,0.5,0,0.7,0.1c0.5,0,0.9,0,1.3,0
					c0.5,0,1,0,1.4-0.2c2.1-1.1,4.4-0.9,6.6-1.3c0.2,0,0.5-0.6,0.5-0.9C57.2,28.6,57.1,28.1,56.8,28z M40,28.1
					C40,28.1,40,28.1,40,28.1C40,28.1,40.1,28.1,40,28.1C40,28.1,40,28.1,40,28.1C40,28.1,40,28.1,40,28.1z M40,30.5
					c0-0.1,0-0.3,0-0.6c0.1,0.3,0.1,0.5,0.1,0.6C40.1,30.5,40.1,30.5,40,30.5z M40.1,27.9L40.1,27.9L40.1,27.9L40.1,27.9z
					 M40.4,28.1L40.4,28.1L40.4,28.1L40.4,28.1z M40,27.5c0-0.1,0-0.1,0-0.2c0.2,0,0.3,0.1,0.5,0.1c0,0,0,0.1,0,0.1
					C40.3,27.6,40.1,27.6,40,27.5z M41.2,27.5L41.2,27.5L41.2,27.5L41.2,27.5z M41.8,27.5C41.8,27.5,41.8,27.5,41.8,27.5
					C41.8,27.5,41.8,27.5,41.8,27.5C41.8,27.5,41.8,27.5,41.8,27.5C41.8,27.5,41.8,27.5,41.8,27.5z M43.4,27.5L43.4,27.5L43.4,27.5
					L43.4,27.5z M43.7,27.9C43.7,27.9,43.7,27.9,43.7,27.9C43.7,27.9,43.8,27.8,43.7,27.9C43.8,27.9,43.8,27.9,43.7,27.9
					C43.8,27.9,43.8,27.9,43.7,27.9z M44.6,27.5C44.6,27.5,44.6,27.5,44.6,27.5C44.6,27.5,44.6,27.5,44.6,27.5
					C44.6,27.5,44.6,27.5,44.6,27.5C44.6,27.5,44.6,27.5,44.6,27.5z M45.5,27.5C45.5,27.5,45.5,27.5,45.5,27.5c0-0.1,0-0.1,0-0.1
					c0,0,0,0.1,0.1,0.1C45.6,27.5,45.5,27.6,45.5,27.5z M46.3,28.1L46.3,28.1L46.3,28.1L46.3,28.1z M46.7,29.6
					C46.7,29.6,46.6,29.6,46.7,29.6c0-0.1,0-0.1,0-0.1C46.7,29.5,46.7,29.5,46.7,29.6C46.7,29.5,46.7,29.6,46.7,29.6z M47,27.6
					c-0.2-0.1-0.3-0.1-0.5-0.2c-0.1,0-0.2,0-0.3,0c0,0,0,0,0,0c0,0,0,0,0,0c0,0-0.1,0-0.1-0.1c0,0,0.1-0.1,0.1-0.1
					c0,0,0.1,0.1,0.1,0.1h0l0,0c0.1,0,0.2,0,0.3,0C46.7,27.4,46.8,27.5,47,27.6C47,27.5,47,27.6,47,27.6z M47,27.9
					C47,27.9,47,27.9,47,27.9C47,27.9,47,27.9,47,27.9L47,27.9C47,27.9,47,27.9,47,27.9c0,0.1,0,0.1,0,0.2C47.1,28,47,28,47,27.9z
					 M47.6,27.9C47.6,27.9,47.6,27.9,47.6,27.9C47.6,27.9,47.6,27.8,47.6,27.9C47.7,27.9,47.7,27.9,47.6,27.9
					C47.7,27.9,47.6,27.9,47.6,27.9z M47.9,29.2C47.8,29.2,47.8,29.2,47.9,29.2C47.8,29.2,47.8,29.2,47.9,29.2
					C47.9,29.2,47.9,29.2,47.9,29.2C47.9,29.2,47.9,29.2,47.9,29.2z M48.3,28.1L48.3,28.1L48.3,28.1L48.3,28.1z M48.1,27.4
					C48.1,27.4,48.1,27.4,48.1,27.4C48.1,27.4,48.1,27.4,48.1,27.4C48.1,27.4,48.1,27.4,48.1,27.4L48.1,27.4c0,0,0.1-0.1,0.1-0.1
					c0.1,0.1,0.1,0.1,0.2,0.2C48.3,27.5,48.2,27.4,48.1,27.4z M49,27.9L49,27.9L49,27.9L49,27.9z M51.5,27.8
					C51.5,27.8,51.5,27.8,51.5,27.8c0,0.1,0,0.1,0,0.1C51.5,27.9,51.4,27.9,51.5,27.8C51.4,27.8,51.4,27.8,51.5,27.8z M50.5,27.5
					C50.5,27.5,50.5,27.5,50.5,27.5C50.5,27.5,50.5,27.5,50.5,27.5C50.5,27.5,50.5,27.5,50.5,27.5C50.5,27.5,50.5,27.5,50.5,27.5z
					 M50.5,30.1L50.5,30.1L50.5,30.1L50.5,30.1z M50.5,28.1L50.5,28.1L50.5,28.1L50.5,28.1z M50.5,28.4L50.5,28.4L50.5,28.4
					L50.5,28.4z M49.6,28.8C49.6,28.8,49.5,28.8,49.6,28.8c-0.1-0.1,0-0.2,0-0.3c0.1,0.1,0.1,0.1,0.1,0.1
					C49.7,28.7,49.7,28.8,49.6,28.8z M50.1,30.7C50.1,30.7,50,30.7,50.1,30.7c-0.1,0-0.1,0-0.1,0c0-0.1,0.1-0.3,0.2-0.2
					c0,0,0,0.1,0,0.1C50.2,30.6,50.1,30.6,50.1,30.7z M50.2,27.4C50.2,27.4,50.3,27.4,50.2,27.4c0.1,0.1,0.1,0.1,0.1,0.1
					c0,0-0.1,0-0.1,0C50.2,27.5,50.2,27.4,50.2,27.4z M50.2,30.8L50.2,30.8L50.2,30.8L50.2,30.8z M50.2,30.5L50.2,30.5L50.2,30.5
					L50.2,30.5z M50.2,30.1L50.2,30.1L50.2,30.1L50.2,30.1z M50.3,29.1C50.3,29.1,50.2,29.1,50.3,29.1
					C50.2,29.1,50.2,29.1,50.3,29.1C50.2,29.1,50.3,29.1,50.3,29.1C50.3,29.1,50.3,29.1,50.3,29.1z M50.4,28
					C50.4,28,50.3,28,50.4,28c-0.1,0.1-0.1,0.1-0.1,0.2c0,0,0-0.1,0-0.1C50.3,28,50.3,28,50.4,28C50.3,28,50.4,28,50.4,28
					C50.4,27.9,50.3,27.9,50.4,28C50.3,27.9,50.4,27.9,50.4,28C50.4,27.9,50.4,27.9,50.4,28C50.4,28,50.4,28,50.4,28z M50.4,30.8
					C50.4,30.8,50.4,30.8,50.4,30.8C50.5,30.8,50.5,30.7,50.4,30.8C50.5,30.8,50.5,30.8,50.4,30.8C50.5,30.8,50.5,30.8,50.4,30.8z
					 M51.1,28.1L51.1,28.1L51.1,28.1L51.1,28.1z M51.1,27.5C51.1,27.5,51.1,27.5,51.1,27.5C51.1,27.5,51.1,27.5,51.1,27.5
					C51.1,27.5,51.1,27.5,51.1,27.5z M51.2,27.9C51.2,27.9,51.2,27.9,51.2,27.9c-0.1,0,0-0.1,0-0.1C51.3,27.8,51.3,27.8,51.2,27.9
					C51.3,27.9,51.3,27.9,51.2,27.9z M51.5,28.2C51.4,28.2,51.4,28.2,51.5,28.2c-0.1-0.1,0-0.1,0-0.1C51.4,28.1,51.5,28.1,51.5,28.2
					C51.5,28.2,51.5,28.2,51.5,28.2z M51.5,28C51.5,28,51.4,28,51.5,28C51.5,28,51.5,27.9,51.5,28C51.5,27.9,51.5,27.9,51.5,28
					c0.1-0.1,0.1-0.2,0.1-0.2c0,0.1,0.1,0.1,0.1,0.2c0,0-0.1,0-0.1,0C51.5,28,51.5,28,51.5,28z M51.7,28.5
					C51.6,28.5,51.6,28.4,51.7,28.5C51.6,28.4,51.6,28.4,51.7,28.5C51.6,28.4,51.7,28.4,51.7,28.5C51.7,28.4,51.7,28.4,51.7,28.5
					C51.7,28.4,51.7,28.5,51.7,28.5z M52.2,27.9c0,0-0.1,0-0.1,0C52.2,27.9,52.2,27.8,52.2,27.9C52.2,27.8,52.2,27.8,52.2,27.9
					C52.2,27.9,52.2,27.9,52.2,27.9z M52.9,27.9C52.9,27.9,52.9,27.9,52.9,27.9C52.9,27.9,52.9,27.9,52.9,27.9
					C52.9,27.9,52.9,27.9,52.9,27.9z"/>
			</g>
		</g>
		<g>
			<path class="st1" d="M56.9,17.8c-0.2-0.2,0-0.5,0-0.8c0-0.1,0.1-0.2,0.1-0.3c0.1-0.2,0.2-0.5,0.2-0.5s-0.1-0.3,0-0.4
				c0.1-0.1,0.1-0.4,0.1-0.4s-0.1-0.2,0-0.3l0-0.9c0,0-0.4-0.2-0.5-0.4c-0.1-0.2-0.3-0.3-0.3-0.5c0-0.1-0.1-0.3-0.3-0.3
				c0,0-0.4-0.5-0.4-0.7c-0.1-0.2-0.2-0.3-0.4-0.5c-0.1-0.1-0.1-0.5-0.2-0.5c-0.1-0.1-0.2-0.1-0.3-0.1c-0.1,0-0.4-0.7-0.4-0.8
				c-0.1-0.1-0.1-0.1,0-0.2c0.1-0.2,0.2-0.3,0.3-0.5c0-0.1,0.1-0.2,0.1-0.2c0.1-0.4,0.2-0.8,0.5-1.2c0,0,0,0,0,0
				C55.3,8.2,55.2,8.1,55,8c-0.4-0.4-1-0.8-1.5-1.1c-0.4-0.3-0.9-0.5-1.3-0.7c-0.5-0.2-1.1-0.3-1.6-0.4c-1.1-0.2-2.1-0.3-3.2-0.4
				c-0.1,0-0.2,0-0.2,0c-0.5,0.1-1,0.2-1.4,0.3c-0.1,0-0.9,0.2-0.9,0.4c0.1,0,0.3,0.1,0.4,0.2c0.4,0.1,0.6,0.1,1,0.3
				c0,0,0.1,0,0.1,0c0,0,0.3-0.2,0.5-0.1c0.1,0.1,0.3-0.1,0.4-0.1c0.1,0,0.2,0.4,0.4,0.1c0.2,0.1,0.4,0.1,0.5,0.2
				c0.1,0,0.2,0.1,0.3,0.2c0.2,0.1,0.2,0.5,0.2,0.6c0,0.3,0,0.6,0,0.9c0,0.3-0.1,0.5-0.3,0.7c-0.3,0.3-0.5,0.4-0.8,0.7
				c0,0-0.1,0.2-0.1,0.2l-0.4,0.9l-0.4,0.6l-0.5,0.4c-0.3,0-0.3,0.6-0.4,0.8c-0.2,0.2-0.1,0.5,0,0.7c0.1,0.6,0.1,1.2,0.3,1.8
				c0,0.2,0,0.4-0.1,0.4c-0.1,0.1-0.2,0-0.4-0.1c0,0-0.3-0.3-0.4-0.4c-0.1-0.1-0.3-0.2-0.6-0.5c-0.2-0.2-0.4-0.3-0.5-0.4
				C43.9,14,43.6,14,43.6,14l-0.4-0.4c0,0,0,0,0,0l-0.1-0.3c0,0-0.2-0.2-0.4-0.3c-0.2-0.2-0.3-0.4-0.5-0.7c0-0.1-0.1-0.1-0.1-0.2
				c0-0.4,0-0.8,0-1.1c0-0.4-0.3-0.7-0.3-1c0-0.2-0.1-0.4,0-0.7c0,0,0-0.1-0.1-0.1c-0.2-0.5,0.1-0.6,0-0.8c-0.1-0.1-0.2-0.4-0.7,0.1
				c-0.3,0.3-0.5,0.7-0.7,1c-0.5,0.6-1,1.2-1.1,2.1c-0.2,0.8-0.4,1.7-0.6,2.5c-0.1,0.2,0,0.5,0,0.7c0,0.6-0.2,1.3,0.2,1.9
				c0.1,0.1,0,0.3,0,0.4c0,0.1,0.1,0.1,0.2,0.2c-0.1,0.9,0.3,1.8,0.7,1.9c0.1,0.3,0.1,0.6,0.3,0.9c0.8,1.2,1.7,2.2,2.9,3
				c1.5,0.9,3.1,1.5,4.8,1.6c0,0,0.1,0,0.1,0c0.1,0,0.2-0.1,0.2-0.2c0.1-0.1,0.2-0.2,0.4-0.3c0,0,0-0.1,0.1-0.1c0-0.1,0-0.2,0-0.3
				c0-0.1-0.1,0-0.1-0.1c0-0.1,0-0.3,0-0.3c0-0.2,0-0.5,0-0.6c0-0.2,0.1-0.5,0.2-0.7c0-0.1,0.1-0.1,0.1-0.2
				c-0.4-0.3-0.8-0.6-1.2-0.9c-0.2-0.1-0.2-0.4,0-0.5c0.2-0.1,0.2-0.3,0.3-0.4c0.1-0.2,0.1-0.6,0-0.8c0-0.1,0-0.2,0.1-0.2
				c0.2,0,0.2-0.1,0.2-0.3c0-0.1,0-0.2,0.1-0.4c0-0.1,0-0.3,0.1-0.3c0.2-0.1,0.4-0.1,0.6-0.1c0.2,0,0.3,0.2,0.5,0.2
				c0.1,0,0.1-0.1,0.2,0c0,0,0.2,0,0.2,0c0.2,0.1,0.3,0.2,0.5,0.1c0.1,0,0.4,0,0.4,0c0.2,0,0.3-0.1,0.5-0.1c0,0,0.2,0,0.4,0
				c0.1,0,0.2-0.1,0.3-0.1c0.2,0,0.4,0,0.5-0.1c0.3-0.1,0.5,0.1,0.8,0c0,0,0.1,0.1,0.1,0.1c0.1,0.4,0.3,0.9,0.4,1.4
				c0,0-0.1,0.1-0.1,0.2c-0.4,0.5-0.4,0.5-0.6,1.3c-0.1,0.3-0.1,0.6-0.2,0.9c-0.1,0.2-0.2,0.4-0.3,0.5c-0.4,0.5-0.8,1-1.3,1.5
				c-0.1,0.1-0.1,0.2-0.2,0.2c-0.3,0.2-0.7,0.3-0.8,0.4c-0.1,0.1,0.2,0.1,0.2,0.1c2-0.2,2.3-0.3,3.9-1.4c1.1-0.7,2-1.7,2.7-2.9
				c0.3-0.5,0.6-1.1,0.8-1.6C57.6,18,57.1,18,56.9,17.8z M47.2,6.2C47.2,6.2,47.2,6.2,47.2,6.2C47.2,6.1,47.2,6.1,47.2,6.2L47.2,6.2
				z M39.3,15.1C39.2,15.1,39.2,15.1,39.3,15.1c0-0.1,0-0.2,0-0.2c0,0,0.1,0,0.1,0C39.3,14.9,39.3,15,39.3,15.1z M39.5,13.4
				C39.5,13.4,39.4,13.4,39.5,13.4c0-0.1,0-0.3,0-0.4c0,0,0.1,0,0.1,0C39.6,13.2,39.5,13.3,39.5,13.4z M41.2,13.5
				C41.2,13.5,41.2,13.5,41.2,13.5c-0.1,0-0.1,0-0.1-0.1C41.1,13.4,41.2,13.4,41.2,13.5C41.2,13.4,41.3,13.4,41.2,13.5z M45.9,20.3
				c0,0-0.1-0.1-0.1-0.1c0,0,0.1-0.1,0.1-0.1C45.9,20.1,45.9,20.2,45.9,20.3C45.9,20.2,45.9,20.3,45.9,20.3z M52.9,8.1
				c0,0,0-0.1,0-0.1c0.1,0,0.1,0,0.2,0c0,0,0,0.1,0,0.1C53.1,8,53,8.1,52.9,8.1z"/>
		</g>
	</g>
	<g>
		<line class="st0" x1="86.3" y1="20" x2="197" y2="20"/>
		<rect x="86.3" y="19.6" class="st0" width="110.7" height="0.8"/>
	</g>
</g>
</svg>
